<svg version="1.2" baseProfile="tiny-ps" xmlns="http://www.w3.org/2000/svg" viewBox="0 0 4000 4000" width="4000" height="4000">
	<title>4500_3_07-ai</title>
	<style>
		tspan { white-space:pre }
		.shp0 { fill: #26523a }
		.shp1 { fill: #ffffff }
		.shp2 { fill: #22a7f0 }
		.shp3 { fill: #26523a }
		.shp4 { fill: #56b882 }
		.shp5 { fill: #ffc033 }
		.shp6 { fill: #ff9d33 }
	</style>
	<g id="Layer 1">
		<g id="&lt;Group&gt;">
			<g id="&lt;Group&gt;">
				<g id="&lt;Group&gt;" style="opacity: 0.2">
					<g id="&lt;Group&gt;">
						<path id="&lt;Path&gt;" class="shp0" d="M2545.39 3464.6C2545.39 3526.97 2196.87 3577.53 1766.95 3577.53C1337.03 3577.53 988.51 3526.97 988.51 3464.6C988.51 3402.24 1337.03 3351.68 1766.95 3351.68C2196.87 3351.68 2545.39 3402.24 2545.39 3464.6Z" />
					</g>
				</g>
				<g id="&lt;Group&gt;">
					<g id="&lt;Group&gt;">
						<g id="&lt;Group&gt;">
							<path id="&lt;Path&gt;" class="shp1" d="M2304.27 2251.95C2283.98 2251.32 2264.66 2246.43 2246.45 2238.44C2171.44 2205.6 2110.27 2133.54 2062.93 2022.24L2068.36 1986.2L2110.83 1703.59C2125.75 1722.61 2145.19 1744.08 2169.15 1768.01C2195.54 1794.41 2229.2 1824.73 2266.69 1850.64C2324.23 1890.45 2390.73 1919.95 2453.59 1908.81C2517.43 2142.38 2467.66 2256.77 2304.27 2251.95Z" />
						</g>
						<g id="&lt;Group&gt;">
							<path id="&lt;Compound Path&gt;" fill-rule="evenodd" class="shp0" d="M2311.68 2269.76C2309.06 2269.76 2306.42 2269.72 2303.76 2269.64C2303.75 2269.64 2303.74 2269.64 2303.73 2269.64C2282.15 2268.97 2260.49 2263.92 2239.34 2254.64C2121.76 2203.16 2049.66 2036.24 2046.65 2029.16C2045.37 2026.15 2044.95 2022.84 2045.44 2019.6L2093.34 1700.97C2094.39 1693.98 2099.49 1688.3 2106.32 1686.49C2113.14 1684.68 2120.39 1687.12 2124.75 1692.67C2124.97 1692.95 2146.99 1720.88 2181.65 1755.49C2213.57 1787.42 2245.57 1814.53 2276.75 1836.08C2342.48 1881.56 2400.93 1900.17 2450.51 1891.39C2459.51 1889.78 2468.25 1895.32 2470.66 1904.14C2472.94 1912.49 2525.61 2109.76 2445.61 2211.43C2415.13 2250.15 2370.1 2269.76 2311.68 2269.76ZM2304.82 2234.27C2355.93 2235.78 2392.91 2221.15 2417.77 2189.58C2475.35 2116.48 2450.27 1974.49 2440.08 1928.33C2385.08 1932.64 2323.48 1911.44 2256.62 1865.19C2223.7 1842.43 2190.06 1813.94 2156.64 1780.52C2143.28 1767.18 2131.79 1754.88 2122.56 1744.6L2081.2 2019.74C2093.22 2045.98 2158.75 2180.74 2253.54 2222.24C2270.54 2229.7 2287.79 2233.74 2304.82 2234.27Z" />
						</g>
					</g>
					<g id="&lt;Group&gt;">
						<g id="&lt;Group&gt;">
							<g id="&lt;Group&gt;">
								<path id="&lt;Path&gt;" class="shp1" d="M1543.97 1850.78L1537.87 1993.42L1516.7 2487.05L1505.47 2749.8C1498.75 2750.31 1489.73 2750.77 1478.39 2751.15C1404.48 2753.67 1199.9 2752.03 1128.46 2662.28C1095.97 2621.35 1076.35 2501.87 1070.88 2370.52C1064.24 2210.54 1078.48 2032.94 1115.63 1958.74C1146.77 1896.55 1234.82 1866.77 1326.17 1854.17C1359.73 1849.48 1393.78 1847.15 1425.6 1846.38C1472.92 1845.21 1515.3 1847.54 1543.97 1850.78Z" />
							</g>
						</g>
						<g id="&lt;Group&gt;" style="opacity: 0.251">
							<g id="&lt;Group&gt;">
								<path id="&lt;Path&gt;" class="shp0" d="M1516.71 2487.05L1505.47 2749.81C1312.72 2765.05 1187.05 2735.88 1128.45 2662.29C1095.95 2621.38 1076.36 2501.85 1070.86 2370.52L1249.48 2334.54C1291.19 2334.29 1314.78 2400.42 1320.25 2532.92C1322.57 2588.55 1407.9 2607.86 1470.11 2561.93C1492.66 2545.25 1507.2 2518.57 1516.71 2487.05Z" />
							</g>
						</g>
						<g id="&lt;Group&gt;">
							<g id="&lt;Group&gt;">
								<path id="&lt;Path&gt;" class="shp0" d="M1442.55 2769.58C1349.4 2769.58 1181.44 2757.22 1114.64 2673.31C1071.99 2619.74 1054.28 2459.54 1051.93 2327.48C1049.59 2196.32 1060.95 2028.51 1099.82 1950.83C1165.2 1820.23 1444.01 1821.65 1545.94 1833.22C1555.65 1834.32 1562.62 1843.08 1561.52 1852.79C1560.42 1862.5 1551.64 1869.45 1541.95 1868.37C1430.4 1855.71 1183.31 1863.08 1131.47 1966.66C1101.79 2025.94 1084.46 2167.32 1087.31 2326.84C1090.09 2483.06 1112.2 2613.43 1142.32 2651.27C1223.32 2753.01 1501.31 2732.4 1504.1 2732.18C1513.87 2731.44 1522.36 2738.69 1523.13 2748.43C1523.9 2758.17 1516.63 2766.68 1506.89 2767.46C1503.48 2767.72 1478.62 2769.58 1442.55 2769.58Z" />
							</g>
						</g>
						<g id="&lt;Group&gt;">
							<g id="&lt;Group&gt;">
								<path id="&lt;Path&gt;" class="shp1" d="M1086.78 2342.66L1239.37 2351.35C1253 2352.12 1264.39 2361.97 1267.06 2375.35C1276.84 2424.35 1293.57 2538.69 1246.43 2577.4C1207.31 2609.53 1142.8 2607.01 1104.46 2575.74C1061.57 2540.75 1055.41 2428.42 1055.09 2372.76C1054.99 2355.45 1069.5 2341.68 1086.78 2342.66Z" />
							</g>
						</g>
						<g id="&lt;Group&gt;" style="opacity: 0.251">
							<g id="&lt;Group&gt;">
								<path id="&lt;Path&gt;" class="shp0" d="M1267.05 2375.36C1276.86 2424.35 1293.56 2538.7 1246.42 2577.39C1207.29 2609.54 1142.8 2607.01 1104.44 2575.73C1078.08 2554.19 1065.6 2503.41 1059.82 2454.57C1067.13 2478.89 1078.27 2498.55 1091.91 2511.33C1144.01 2560.16 1188.64 2554.9 1225.81 2495.55C1232.7 2509.67 1238.8 2517.09 1244.1 2517.8C1277.35 2522.26 1268.62 2418.57 1262.85 2365.03C1264.85 2368.08 1266.31 2371.56 1267.05 2375.36Z" />
							</g>
						</g>
						<g id="&lt;Group&gt;">
							<g id="&lt;Group&gt;">
								<path id="&lt;Compound Path&gt;" fill-rule="evenodd" class="shp0" d="M1177.42 2618.09C1147.18 2618.09 1116.66 2608.52 1093.28 2589.45C1047.92 2552.44 1037.85 2451.24 1037.4 2372.86C1037.32 2359.75 1042.73 2347.06 1052.23 2338.03C1061.73 2329 1074.7 2324.26 1087.79 2325L1240.38 2333.69C1262.06 2334.92 1280.17 2350.63 1284.41 2371.88C1297.04 2435.16 1310.37 2547.78 1257.66 2591.08C1235.71 2609.11 1206.7 2618.09 1177.42 2618.09ZM1085.05 2360.3C1081.88 2360.3 1078.91 2361.49 1076.6 2363.68C1074.12 2366.04 1072.76 2369.23 1072.78 2372.65C1073.34 2469.8 1089.37 2540.59 1115.64 2562.03C1148.72 2589.01 1203.47 2589.79 1235.2 2563.73C1267.78 2536.97 1264.06 2450.66 1249.71 2378.81C1248.63 2373.36 1243.96 2369.33 1238.37 2369.01L1085.77 2360.32C1085.53 2360.31 1085.29 2360.3 1085.05 2360.3Z" />
							</g>
						</g>
						<g id="&lt;Group&gt;">
							<g id="&lt;Group&gt;">
								<path id="&lt;Path&gt;" class="shp0" d="M1223.81 2406.46C1223.48 2424.36 1224.86 2442.89 1224.92 2461.49C1225.06 2480.11 1224.33 2499 1220.8 2517.88C1217.27 2536.63 1210.78 2555.77 1198.46 2572.01C1192.34 2580.09 1184.81 2587.25 1176.32 2592.95C1167.84 2598.68 1158.5 2602.94 1148.93 2606.02C1143.63 2607.73 1137.95 2604.81 1136.25 2599.51C1134.54 2594.22 1137.46 2588.54 1142.75 2586.83C1142.9 2586.79 1143.04 2586.74 1143.18 2586.71L1143.29 2586.68C1159.43 2582.33 1174 2573.84 1184.51 2560.99C1195.13 2548.23 1201.74 2531.86 1205.71 2514.72C1209.72 2497.52 1211.24 2479.47 1211.88 2461.31C1212.62 2443.1 1212 2424.81 1213.16 2405.9C1213.34 2402.96 1215.87 2400.72 1218.81 2400.9C1221.67 2401.08 1223.87 2403.48 1223.82 2406.32L1223.81 2406.46Z" />
							</g>
						</g>
						<g id="&lt;Group&gt;">
							<g id="&lt;Group&gt;">
								<path id="&lt;Path&gt;" class="shp0" d="M1208.84 1955.76C1228.89 1951.99 1249.05 1949.29 1269.31 1947.18C1289.57 1945.13 1309.93 1943.74 1330.37 1943.22C1350.81 1942.68 1371.38 1942.67 1392.02 1944.69C1412.62 1946.75 1433.46 1949.71 1453.88 1957.54C1460.38 1960.04 1463.63 1967.33 1461.14 1973.83C1458.84 1979.82 1452.49 1983.05 1446.42 1981.58L1446.12 1981.51C1427.95 1977.14 1408.58 1974.3 1389.1 1971.86C1369.58 1969.45 1349.76 1967.4 1329.82 1965.92C1309.88 1964.36 1289.82 1963.14 1269.7 1962.18L1209.13 1959.34L1209.09 1959.34C1208.1 1959.3 1207.32 1958.45 1207.37 1957.45C1207.41 1956.6 1208.04 1955.91 1208.84 1955.76Z" />
							</g>
						</g>
					</g>
					<g id="&lt;Group&gt;">
						<g id="&lt;Group&gt;">
							<path id="&lt;Path&gt;" class="shp1" d="M2240.01 2508.45C2205.27 2754.6 2170.21 2990.28 2134.83 3215.49C2230.78 3241.59 2279.08 3283.62 2279.74 3341.58C2280.99 3451.12 2161.69 3458.12 2015.53 3458.2C1911 3458.26 1837.11 3434.46 1793.48 3407.02C1698.43 3347.25 1876.76 3240.4 1721.61 2468.71" />
						</g>
					</g>
					<g id="&lt;Group&gt;" style="opacity: 0.251">
						<g id="&lt;Group&gt;">
							<path id="&lt;Path&gt;" class="shp0" d="M2275.33 3375.96C2252.68 3452.66 2144.59 3458.13 2015.54 3458.22C1911 3458.26 1837.09 3434.48 1793.48 3407.04C1698.43 3347.26 1876.74 3240.4 1721.62 2468.69L2240.01 2508.47C2231.2 2570.81 2220.16 2647.32 2206.88 2738C2182.51 2760.74 2157.51 2779.7 2133.17 2795.48C2021.33 2867.99 1942.94 2981.98 1917.23 3112.76C1892.86 3236.72 1875.55 3343.26 1933.79 3379.88C1977.4 3407.32 2043.38 3417.07 2139.12 3414.7C2192.76 3413.38 2238.55 3398.93 2275.33 3375.96Z" />
						</g>
					</g>
					<g id="&lt;Group&gt;">
						<g id="&lt;Group&gt;">
							<path id="&lt;Path&gt;" class="shp0" d="M2015.14 3475.89C1888.66 3475.89 1816.08 3442.14 1784.06 3422C1737.68 3392.83 1743.2 3352.25 1753.21 3278.59C1769.17 3161.21 1798.87 2942.74 1704.27 2472.2C1702.34 2462.62 1708.55 2453.29 1718.13 2451.37C1727.7 2449.45 1737.03 2455.64 1738.96 2465.22C1834.73 2941.6 1804.51 3163.92 1788.27 3283.35C1778.19 3357.51 1776.8 3375.64 1802.9 3392.05C1831.69 3410.15 1897.54 3440.51 2015.13 3440.51C2015.26 3440.51 2015.39 3440.51 2015.52 3440.51C2113.34 3440.46 2204.26 3437.25 2241.92 3399.13C2255.75 3385.13 2262.33 3366.37 2262.05 3341.78C2261.37 3281.6 2166.62 3242.53 2130.17 3232.56L2114.91 3228.38L2117.35 3212.75C2169.8 2878.92 2221.97 2509.67 2222.49 2505.98C2223.86 2496.3 2232.79 2489.53 2242.48 2490.93C2252.16 2492.3 2258.89 2501.25 2257.53 2510.92C2257.01 2514.56 2206.35 2873.15 2154.66 3203.19C2194.25 3216.75 2296.5 3259.68 2297.43 3341.38C2297.82 3375.43 2287.61 3403.23 2267.09 3424C2219.78 3471.88 2125.17 3475.83 2015.54 3475.89C2015.41 3475.89 2015.27 3475.89 2015.14 3475.89Z" />
						</g>
					</g>
					<g id="&lt;Group&gt;">
						<g id="&lt;Group&gt;">
							<path id="&lt;Path&gt;" class="shp0" d="M1973.56 3063.14C1872.92 3063.14 1789.14 3041.55 1783.46 3040.06C1774.01 3037.57 1768.37 3027.9 1770.86 3018.45C1773.34 3009.01 1783.01 3003.36 1792.47 3005.84C1794.64 3006.41 2011.48 3062.12 2159.18 2992.36C2168.01 2988.19 2178.55 2991.96 2182.73 3000.8C2186.9 3009.63 2183.12 3020.18 2174.29 3024.35C2111.48 3054.02 2038.95 3063.14 1973.56 3063.14Z" />
						</g>
					</g>
					<g id="&lt;Group&gt;">
						<g id="&lt;Group&gt;">
							<path id="&lt;Path&gt;" class="shp0" d="M2131.71 3232.9C2125.5 3231.5 2118.23 3230.22 2111.35 3229.2C2104.38 3228.13 2097.35 3227.26 2090.31 3226.6C2076.22 3225.26 2062.05 3224.56 2047.96 3224.85C2033.89 3225.26 2019.88 3226.49 2006.17 3229.06C1992.57 3231.87 1979.35 3235.99 1967.05 3242.01L1966.7 3242.18C1962.31 3244.32 1957.02 3242.51 1954.87 3238.12C1952.87 3234.02 1954.36 3229.11 1958.13 3226.73C1971.51 3218.38 1985.99 3212.24 2000.8 3207.61C2015.65 3203.23 2030.8 3200.36 2046 3198.39C2061.2 3196.54 2076.46 3195.75 2091.71 3195.67C2099.34 3195.62 2106.96 3195.8 2114.6 3196.19C2122.34 3196.57 2129.66 3197.07 2137.94 3198.07C2147.65 3199.25 2154.58 3208.07 2153.4 3217.79C2152.23 3227.5 2143.4 3234.43 2133.69 3233.25C2133.09 3233.18 2132.5 3233.08 2131.93 3232.95L2131.71 3232.9Z" />
						</g>
					</g>
					<g id="&lt;Group&gt;">
						<g id="&lt;Group&gt;">
							<path id="&lt;Path&gt;" class="shp1" d="M2241.6 2554.23C2212.64 2787.67 1719.49 2898.2 1478.39 2751.15C1408.26 2708.39 1359.49 2643.88 1349.61 2554.23C1328.49 2362.24 1357.26 2097.31 1403.9 1919.12C1410.78 1892.82 1418.05 1868.36 1425.6 1846.38C1439.84 1804.82 1455.1 1771.89 1470.69 1750.91C1499.51 1712.12 1588.38 1445.16 1767.39 1473.54C1899.18 1501.39 2092.09 1526.33 2129.77 1633.8C2132.05 1657.53 2143.19 1688.05 2151.13 1709.7C2156.36 1723.99 2162.51 1743.75 2169.15 1768.01C2179.32 1805.01 2190.6 1852.53 2201.5 1907.21C2220.34 2001.89 2238.02 2118.09 2246.45 2238.44C2253.86 2344.41 2254.1 2453.68 2241.6 2554.23Z" />
						</g>
					</g>
					<g id="&lt;Group&gt;" style="opacity: 0.251">
						<g id="&lt;Group&gt;">
							<path id="&lt;Path&gt;" class="shp0" d="M2241.6 2554.23C2212.64 2787.67 1719.49 2898.2 1478.39 2751.15C1408.26 2708.39 1359.49 2643.88 1349.61 2554.23C1347.82 2537.9 1346.36 2521 1345.25 2503.71C1363.22 2573.65 1679.1 2731.29 1748.89 2728.58C1930.2 2721.56 2209.93 2717.4 2227.16 2482.7C2234.58 2381.65 2242.52 2255.34 2235.11 2149.37C2232.79 2116.24 2229.78 2083.5 2226.2 2051.39C2234.77 2110.77 2241.94 2174.03 2246.45 2238.44C2253.86 2344.41 2254.1 2453.68 2241.6 2554.23Z" />
						</g>
					</g>
					<g id="&lt;Group&gt;">
						<g id="&lt;Group&gt;">
							<path id="&lt;Compound Path&gt;" fill-rule="evenodd" class="shp0" d="M1754.6 2835.34C1752.84 2835.34 1751.08 2835.34 1749.32 2835.33C1562.31 2834.03 1354.48 2760.01 1332.03 2556.16C1302.97 2292.28 1369.27 1857.71 1456.47 1740.38C1460.79 1734.57 1468.22 1719.55 1476.83 1702.15C1520.38 1614.08 1611.05 1430.85 1770.17 1456.06L1771.06 1456.23C1786.45 1459.48 1802.68 1462.7 1819.39 1466.01C1948.8 1491.64 2109.85 1523.54 2146.46 1627.96L2147.17 1629.98L2147.37 1632.12C2149.42 1653.59 2160.44 1683.69 2167.73 1703.61C2211.09 1822.06 2298.99 2235.69 2259.17 2556.41C2249.08 2637.72 2185.93 2711.15 2081.36 2763.17C1988.96 2809.14 1870.15 2835.34 1754.6 2835.34ZM1741.71 1489.18C1621.62 1489.18 1546.02 1642.06 1508.54 1717.83C1498.41 1738.31 1491.09 1753.11 1484.87 1761.49C1410.29 1861.82 1337.11 2279 1367.2 2552.29C1387.1 2733.07 1577.77 2798.75 1749.57 2799.95C1962.79 2801.51 2204.81 2707.06 2224.06 2552.05C2263.13 2237.38 2177 1831.86 2134.5 1715.77C2126.37 1693.54 2115.31 1663.33 2112.39 1637.8C2080.97 1553.89 1932.22 1524.43 1812.52 1500.71C1795.82 1497.41 1779.59 1494.19 1764.2 1490.94C1756.54 1489.75 1749.03 1489.18 1741.71 1489.18Z" />
						</g>
					</g>
					<g id="&lt;Group&gt;" style="opacity: 0.349">
						<g id="&lt;Group&gt;">
							<path id="&lt;Path&gt;" class="shp0" d="M1788.65 2615.82C1787.75 2607.15 1786.77 2598.29 1785.73 2589.33C1786.77 2598.29 1787.71 2607.15 1788.65 2615.82Z" />
						</g>
					</g>
					<g id="&lt;Group&gt;" style="opacity: 0.349">
						<g id="&lt;Group&gt;">
							<path id="&lt;Path&gt;" class="shp0" d="M1719.7 2548.08C1718.73 2537.5 1717.67 2526.83 1716.57 2515.91C1717.67 2526.83 1718.73 2537.55 1719.7 2548.08Z" />
						</g>
					</g>
					<g id="&lt;Group&gt;">
						<g id="&lt;Group&gt;">
							<path id="&lt;Path&gt;" class="shp1" d="M1224.51 3368.22C1230.6 3303.6 1279.25 3259.06 1370.44 3234.6C1355.85 3016.83 1350.19 2766.28 1353.47 2482.95C1353.65 2462.72 1353.96 2442.32 1354.31 2421.67L1448.63 2495.03L1806.65 2773.53C1793.4 2964.1 1781.42 3141.16 1770.69 3304.73C1759.53 3475.31 1623.88 3483.46 1373.16 3474.1C1284.95 3470.8 1217.69 3440.41 1224.51 3368.22Z" />
						</g>
					</g>
					<g id="&lt;Group&gt;" style="opacity: 0.251">
						<g id="&lt;Group&gt;">
							<path id="&lt;Path&gt;" class="shp0" d="M1806.67 2773.53C1793.4 2964.1 1781.41 3141.17 1770.69 3304.74C1759.55 3475.33 1623.89 3483.46 1373.15 3474.12C1289.26 3470.92 1224.31 3443.36 1224.02 3378.56C1249.4 3389.84 1281.8 3395.65 1317.64 3397.01C1568.38 3406.41 1704.04 3398.27 1715.18 3227.69C1725.21 3074.63 1714.03 2830.11 1721.61 2767.43C1725.17 2738.05 1739.53 2730.97 1748.89 2728.58L1806.67 2773.53Z" />
						</g>
					</g>
					<g id="&lt;Group&gt;">
						<g id="&lt;Group&gt;">
							<path id="&lt;Path&gt;" class="shp0" d="M1815.47 2774.12C1819.47 2834.57 1816.12 2894.49 1812.19 2954.39L1800.77 3134.08L1795.07 3223.93L1792.21 3268.86L1790.79 3291.32C1790.3 3298.84 1789.92 3306.11 1789.14 3314.27C1788.63 3322.21 1787.3 3330.22 1786.17 3338.2C1784.55 3346.2 1783.04 3354.2 1780.62 3362.16C1776.05 3378.05 1769.46 3393.84 1760.14 3408.33C1750.88 3422.83 1738.87 3435.8 1725.27 3446.23C1711.68 3456.71 1696.71 3464.74 1681.44 3470.83C1650.79 3482.77 1619.45 3488.39 1588.63 3491.77C1557.76 3495.05 1527.15 3496.17 1496.74 3496.34C1466.33 3496.54 1436.1 3495.87 1405.96 3494.93L1383.37 3494.16L1372.07 3493.75L1360.27 3493.06C1344.53 3491.93 1328.71 3490.18 1312.86 3486.61C1297.05 3483.1 1281.14 3478.45 1265.75 3470.76C1250.47 3463.06 1235.41 3452.34 1224.01 3437.25C1212.49 3422.31 1206.07 3403.17 1205.27 3385.1C1204.49 3367.16 1206.98 3349.34 1213.72 3332.94C1216.79 3324.64 1221.13 3317.03 1225.63 3309.65C1230.41 3302.49 1235.53 3295.6 1241.25 3289.42C1252.55 3276.9 1265.39 3266.45 1278.78 3257.36C1292.21 3248.3 1306.31 3240.71 1320.75 3234.13C1327.97 3230.84 1335.29 3227.82 1342.72 3225.06C1350.28 3222.28 1357.39 3219.83 1365.82 3217.5L1365.86 3217.49L1352.79 3235.76C1348.54 3167.74 1345.5 3100.04 1342.94 3032.17C1340.46 2964.33 1338.44 2896.48 1337.21 2828.62C1335.96 2760.75 1335.11 2692.88 1335.11 2625C1334.88 2557.12 1335.63 2489.24 1336.62 2421.36C1336.77 2411.59 1344.8 2403.79 1354.57 2403.93C1364.34 2404.07 1372.14 2412.11 1372 2421.88L1372 2421.98C1371.01 2489.63 1370.26 2557.28 1370.49 2624.95C1370.49 2692.61 1371.34 2760.28 1372.58 2827.93C1373.81 2895.59 1375.82 2963.23 1378.3 3030.85C1380.84 3098.42 1383.89 3166.14 1388.1 3233.4L1388.99 3247.63L1375.03 3251.67L1375.02 3251.67C1369.01 3253.44 1361.94 3255.95 1355.47 3258.48C1348.87 3261.06 1342.36 3263.89 1335.98 3266.93C1323.2 3273 1310.95 3279.97 1299.58 3287.83C1276.97 3303.48 1257.6 3323.34 1248.92 3346.64C1244.24 3358.08 1242.84 3370.73 1243.41 3382.67C1244.12 3394.53 1247.93 3405.03 1254.8 3413.87C1261.63 3422.75 1271.56 3430.05 1283.07 3435.71C1294.65 3441.32 1307.73 3445.25 1321.17 3448.2C1334.62 3451.24 1348.73 3452.8 1362.9 3453.8L1373.57 3454.41L1384.77 3454.81L1407.18 3455.54C1437.03 3456.44 1466.83 3457.06 1496.44 3456.83C1526.06 3456.63 1555.5 3455.48 1584.33 3452.38C1613.09 3449.24 1641.34 3443.87 1666.69 3433.94C1691.91 3423.86 1713.4 3408.62 1727.25 3387.02C1734.26 3376.31 1739.51 3364.19 1743.33 3351.3C1745.36 3344.91 1746.66 3338.16 1748.1 3331.46C1749.09 3324.59 1750.32 3317.8 1750.81 3310.75C1751.54 3303.98 1752.02 3296.26 1752.56 3288.81L1754.16 3266.35L1757.37 3221.44L1763.78 3131.61L1776.6 2951.96C1780.69 2892.07 1785.47 2832.21 1797.82 2772.89C1798.82 2768.07 1803.55 2764.97 1808.38 2765.97C1812.39 2766.8 1815.21 2770.22 1815.47 2774.12Z" />
						</g>
					</g>
					<g id="&lt;Group&gt;">
						<g id="&lt;Group&gt;">
							<path id="&lt;Path&gt;" class="shp0" d="M1569.93 3066.56C1443.5 3066.56 1357.9 3029.06 1352.58 3026.67C1343.67 3022.67 1339.69 3012.2 1343.7 3003.29C1347.7 2994.37 1358.16 2990.39 1367.07 2994.39C1369.21 2995.35 1554.56 3075.83 1779.28 2993.92C1788.46 2990.56 1798.62 2995.29 1801.96 3004.48C1805.31 3013.66 1800.58 3023.81 1791.4 3027.16C1710.38 3056.69 1634.78 3066.56 1569.93 3066.56Z" />
						</g>
					</g>
					<g id="&lt;Group&gt;">
						<g id="&lt;Group&gt;">
							<path id="&lt;Path&gt;" class="shp0" d="M1366.31 3217.33C1374.9 3216.35 1382.58 3215.84 1390.67 3215.47C1398.66 3215.08 1406.63 3214.91 1414.61 3214.96C1430.56 3215.05 1446.5 3215.82 1462.41 3217.66C1478.31 3219.62 1494.16 3222.45 1509.74 3226.82C1525.28 3231.43 1540.51 3237.52 1554.69 3245.92C1558.89 3248.41 1560.28 3253.84 1557.79 3258.04C1555.45 3261.98 1550.54 3263.44 1546.47 3261.56L1546.1 3261.39C1533.02 3255.28 1519 3251.15 1504.63 3248.34C1490.16 3245.74 1475.38 3244.54 1460.56 3244.13C1445.71 3243.84 1430.79 3244.55 1415.95 3245.89C1408.53 3246.55 1401.11 3247.43 1393.76 3248.5C1386.5 3249.52 1378.86 3250.8 1372.24 3252.21L1372.03 3252.26C1362.46 3254.31 1353.05 3248.21 1351 3238.64C1348.95 3229.07 1355.05 3219.66 1364.62 3217.61C1365.17 3217.49 1365.75 3217.4 1366.31 3217.33Z" />
						</g>
					</g>
					<g id="&lt;Group&gt;">
						<g id="&lt;Group&gt;">
							<path id="&lt;Path&gt;" class="shp1" d="M2332.56 2380.06C2331.49 2424.03 2294.97 2458.82 2251 2457.75C2207.02 2456.68 2172.24 2420.16 2173.31 2376.18C2174.38 2332.21 2210.89 2297.42 2254.87 2298.49C2298.85 2299.56 2333.63 2336.08 2332.56 2380.06Z" />
						</g>
					</g>
					<g id="&lt;Group&gt;" style="opacity: 0.349">
						<g id="&lt;Group&gt;">
							<path id="&lt;Path&gt;" class="shp0" d="M2332.55 2380.05C2331.48 2424.02 2294.98 2458.84 2251.01 2457.77C2207.03 2456.7 2172.21 2420.15 2173.28 2376.17C2173.58 2364.02 2176.58 2352.51 2181.77 2342.32C2193.89 2369.52 2220.9 2388.85 2252.67 2389.63C2284.43 2390.4 2312.34 2372.4 2325.72 2345.82C2330.4 2356.25 2332.84 2367.9 2332.55 2380.05Z" />
						</g>
					</g>
					<g id="&lt;Group&gt;">
						<g id="&lt;Group&gt;">
							<path id="&lt;Compound Path&gt;" fill-rule="evenodd" class="shp0" d="M2252.97 2475.46C2252.17 2475.46 2251.37 2475.45 2250.57 2475.43C2196.91 2474.13 2154.32 2429.41 2155.62 2375.75C2156.26 2349.76 2166.97 2325.57 2185.8 2307.64C2204.62 2289.7 2229.26 2280.14 2255.3 2280.81C2308.96 2282.11 2351.55 2326.83 2350.25 2380.49C2348.96 2433.34 2305.55 2475.46 2252.97 2475.46ZM2252.89 2316.16C2236.92 2316.16 2221.81 2322.2 2210.2 2333.26C2198.22 2344.67 2191.4 2360.07 2190.99 2376.61C2190.16 2410.77 2217.27 2439.23 2251.43 2440.06C2285.55 2440.86 2314.05 2413.78 2314.88 2379.63C2315.71 2345.47 2288.59 2317.01 2254.44 2316.18C2253.92 2316.17 2253.41 2316.16 2252.89 2316.16Z" />
						</g>
					</g>
					<g id="&lt;Group&gt;">
						<g id="&lt;Group&gt;">
							<path id="&lt;Path&gt;" class="shp1" d="M2165.12 2584.05L1744.31 2598.83C1694.5 2600.59 1652.28 2561.26 1650.52 2511.39L1642.67 2287.45C1641.14 2243.79 1671.11 2206.03 1712.06 2196.14C1717.86 2194.69 1723.9 2193.89 1730.11 2193.66L2150.86 2178.89C2200.73 2177.13 2242.95 2216.46 2244.65 2266.32L2250.91 2443.69L2252.56 2490.26C2254.32 2540.13 2214.93 2582.29 2165.12 2584.05Z" />
						</g>
					</g>
					<g id="&lt;Group&gt;" style="opacity: 0.251">
						<g id="&lt;Group&gt;">
							<path id="&lt;Path&gt;" class="shp0" d="M2165.12 2584.05L1744.31 2598.83C1694.5 2600.59 1652.28 2561.26 1650.52 2511.39L1642.67 2287.45C1641.14 2243.79 1671.11 2206.03 1712.06 2196.14C1728.37 2206.16 1741.69 2214.37 1752.05 2220.79C1778.85 2399.82 1775.63 2533.36 2053.88 2505.08C2149.81 2495.32 2213.23 2464.8 2250.91 2443.69L2252.56 2490.26C2254.32 2540.13 2214.93 2582.29 2165.12 2584.05Z" />
						</g>
					</g>
					<g id="&lt;Group&gt;">
						<g id="&lt;Group&gt;">
							<path id="&lt;Compound Path&gt;" fill-rule="evenodd" class="shp0" d="M1746.24 2616.41C1717.47 2616.41 1690.13 2605.62 1668.85 2585.79C1646.58 2565.03 1633.73 2536.94 1632.67 2506.69L1625.18 2293.41C1624.11 2263.16 1634.96 2234.24 1655.72 2211.97C1676.48 2189.7 1704.57 2176.85 1734.82 2175.78L2144.92 2161.38C2175.2 2160.3 2204.09 2171.16 2226.36 2191.93C2248.63 2212.69 2261.48 2240.78 2262.55 2271.02L2270.04 2484.31C2272.24 2546.96 2223.05 2599.73 2160.4 2601.94L1750.3 2616.34C1748.94 2616.39 1747.59 2616.41 1746.24 2616.41ZM2148.94 2196.69C2148.02 2196.69 2147.09 2196.7 2146.16 2196.74L1736.06 2211.14C1715.26 2211.87 1695.92 2220.73 1681.6 2236.09C1667.29 2251.45 1659.81 2271.37 1660.54 2292.17L1668.03 2505.45C1668.76 2526.25 1677.62 2545.6 1692.98 2559.91C1708.34 2574.23 1728.21 2581.76 1749.06 2580.98L2159.15 2566.57C2202.31 2565.06 2236.19 2528.71 2234.68 2485.55L2227.19 2272.27C2226.46 2251.46 2217.6 2232.12 2202.24 2217.8C2187.56 2204.13 2168.73 2196.69 2148.94 2196.69ZM1749.68 2598.66L1749.72 2598.66L1749.68 2598.66Z" />
						</g>
					</g>
					<g id="&lt;Group&gt;">
						<g id="&lt;Group&gt;">
							<path id="&lt;Path&gt;" class="shp1" d="M2181.96 2581.8C2176.54 2583.13 2170.95 2583.88 2165.12 2584.05L1744.31 2598.83C1707.81 2600.09 1675.39 2579.36 1660 2548.47C1654.38 2537.25 1651.02 2524.7 1650.58 2511.39L1647.05 2411.9L1645.89 2379.08L1642.67 2287.45C1640.91 2237.58 1680.3 2195.43 1730.11 2193.66L1821.04 2190.49C1779.4 2199.86 1748.78 2237.93 1750.31 2282.03L1754.52 2403L1758.15 2506.03C1759.92 2555.84 1802.14 2595.23 1851.94 2593.47L2181.96 2581.8Z" />
						</g>
					</g>
					<g id="&lt;Group&gt;" style="opacity: 0.251">
						<g id="&lt;Group&gt;">
							<path id="&lt;Path&gt;" class="shp0" d="M2181.96 2581.8C2176.54 2583.13 2170.95 2583.88 2165.12 2584.05L1744.31 2598.83C1694.5 2600.59 1652.28 2561.26 1650.58 2511.39L1645.89 2379.08C1657.29 2402.09 1677.31 2430.12 1707.85 2432.06C1724.6 2433.16 1740.6 2420.58 1754.52 2403L1758.15 2506.03C1759.92 2555.84 1802.14 2595.23 1851.94 2593.47L2181.96 2581.8Z" />
						</g>
					</g>
					<g id="&lt;Group&gt;">
						<g id="&lt;Group&gt;">
							<path id="&lt;Compound Path&gt;" fill-rule="evenodd" class="shp0" d="M1741.02 2616.59C1713.64 2616.59 1687.61 2606.32 1667.34 2587.42C1646.11 2567.63 1633.87 2540.85 1632.87 2512.02L1625.01 2288.07C1623.98 2259.25 1634.31 2231.68 1654.1 2210.46C1673.88 2189.24 1700.66 2176.98 1729.49 2175.96L1820.39 2172.78L1824.9 2207.72C1790.7 2215.44 1766.76 2246.44 1767.99 2281.43L1775.86 2505.4C1776.52 2524.78 1784.78 2542.8 1799.09 2556.15C1813.4 2569.49 1831.99 2576.52 1851.3 2575.77L2181.35 2564.15L2186.06 2599.04C2179.37 2600.62 2172.51 2601.53 2165.64 2601.73L1744.93 2616.52C1743.62 2616.57 1742.31 2616.59 1741.02 2616.59ZM1757.01 2210.4L1730.73 2211.32C1711.35 2212.01 1693.33 2220.27 1679.99 2234.58C1666.64 2248.89 1659.68 2267.44 1660.37 2286.82L1668.23 2510.8C1668.9 2530.18 1677.15 2548.2 1691.47 2561.54C1705.78 2574.89 1724.35 2581.89 1743.67 2581.16L1772.98 2580.13C1752.97 2560.54 1741.46 2534.54 1740.5 2506.63L1732.63 2282.68C1731.68 2255.63 1740.84 2230.19 1757.01 2210.4Z" />
						</g>
					</g>
					<g id="&lt;Group&gt;">
						<g id="&lt;Group&gt;">
							<path id="&lt;Path&gt;" class="shp2" d="M1920.22 2390.02C1920.38 2395.55 1917.24 2420.71 1910.78 2465.51C1896.66 2465.93 1880.93 2466.39 1863.59 2466.9C1831.1 2467.85 1803.77 2434.98 1802.55 2393.48C1801.33 2351.98 1826.68 2317.56 1859.18 2316.6C1873.8 2316.17 1889.53 2315.71 1906.37 2315.22C1915.34 2356.09 1919.96 2381.03 1920.22 2390.02Z" />
						</g>
					</g>
					<g id="&lt;Group&gt;" style="opacity: 0.349">
						<g id="&lt;Group&gt;">
							<path id="&lt;Path&gt;" class="shp0" d="M1920.22 2390.02C1920.38 2395.55 1917.24 2420.71 1910.78 2465.51C1896.66 2465.93 1880.93 2466.39 1863.59 2466.9C1831.1 2467.85 1803.77 2434.98 1802.55 2393.48C1801.33 2351.98 1826.68 2317.56 1859.18 2316.6C1873.8 2316.17 1889.53 2315.71 1906.37 2315.22C1915.34 2356.09 1919.96 2381.03 1920.22 2390.02Z" />
						</g>
					</g>
					<g id="&lt;Group&gt;">
						<g id="&lt;Group&gt;">
							<path id="&lt;Compound Path&gt;" fill-rule="evenodd" class="shp0" d="M1862.23 2480.19C1823.25 2480.19 1790.7 2441.9 1789.28 2393.87C1787.85 2345.12 1819.03 2304.51 1858.79 2303.34L1916.97 2301.64L1919.33 2312.38C1921.62 2322.81 1933.07 2375.61 1933.48 2389.64C1933.74 2398.39 1926.22 2451.37 1923.91 2467.4L1922.32 2478.45L1863.98 2480.16C1863.4 2480.18 1862.81 2480.19 1862.23 2480.19ZM1895.73 2328.81L1859.57 2329.87C1834.44 2330.6 1814.81 2358.97 1815.81 2393.09C1816.81 2427.21 1838.05 2454.45 1863.2 2453.64L1899.22 2452.58C1903.26 2423.91 1906.97 2395.07 1906.96 2390.38C1906.71 2382.66 1900.66 2352.01 1895.73 2328.81Z" />
						</g>
					</g>
					<g id="&lt;Group&gt;">
						<g id="&lt;Group&gt;">
							<path id="&lt;Path&gt;" class="shp2" d="M1967.41 2388.64C1968.63 2430.14 1943.28 2464.56 1910.78 2465.51C1878.29 2466.47 1850.96 2433.6 1849.74 2392.09C1848.52 2350.59 1873.87 2316.17 1906.37 2315.22C1938.86 2314.26 1966.19 2347.13 1967.41 2388.64Z" />
						</g>
					</g>
					<g id="&lt;Group&gt;" style="opacity: 0.349">
						<g id="&lt;Group&gt;">
							<path id="&lt;Path&gt;" class="shp0" d="M1852.69 2365.64C1859.5 2399.12 1883.75 2423.52 1911.81 2422.69C1937.04 2421.99 1957.97 2401.04 1965.49 2372.29C1966.59 2377.54 1967.25 2383.02 1967.4 2388.62C1968.65 2430.15 1943.3 2464.58 1910.77 2465.53C1878.28 2466.48 1850.94 2433.59 1849.74 2392.11C1849.5 2382.83 1850.51 2373.92 1852.69 2365.64Z" />
						</g>
					</g>
					<g id="&lt;Group&gt;">
						<g id="&lt;Group&gt;">
							<path id="&lt;Path&gt;" class="shp1" d="M1906.38 2315.2C1938.86 2314.25 1966.2 2347.14 1967.4 2388.62C1967.57 2395.07 1967.14 2401.31 1966.1 2407.36C1961.84 2369.85 1935.99 2341.37 1905.72 2342.23C1878.27 2343.02 1855.89 2367.74 1850.39 2400.45C1850.03 2397.71 1849.81 2394.93 1849.74 2392.11C1848.54 2350.58 1873.89 2316.19 1906.38 2315.2Z" />
						</g>
					</g>
					<g id="&lt;Group&gt;">
						<g id="&lt;Group&gt;">
							<path id="&lt;Compound Path&gt;" fill-rule="evenodd" class="shp0" d="M1909.37 2478.8C1890.16 2478.8 1872.09 2469.76 1858.33 2453.21C1844.91 2437.07 1837.15 2415.5 1836.48 2392.48C1835.8 2369.46 1842.28 2347.48 1854.73 2330.58C1867.9 2312.7 1886.1 2302.54 1905.98 2301.96C1925.77 2301.33 1944.63 2310.45 1958.82 2327.52C1972.24 2343.66 1980 2365.22 1980.67 2388.25L1980.67 2388.25C1981.35 2411.27 1974.87 2433.25 1962.42 2450.15C1949.25 2468.02 1931.05 2478.19 1911.17 2478.77C1910.57 2478.79 1909.97 2478.8 1909.37 2478.8ZM1907.73 2328.47C1907.41 2328.47 1907.08 2328.47 1906.76 2328.48C1895.21 2328.82 1884.32 2335.16 1876.09 2346.32C1867.15 2358.46 1862.5 2374.58 1863 2391.7C1863.5 2408.83 1869.09 2424.64 1878.74 2436.24C1887.6 2446.91 1898.95 2452.57 1910.39 2452.25C1921.94 2451.91 1932.83 2445.58 1941.06 2434.41C1950 2422.27 1954.65 2406.15 1954.15 2389.03L1954.15 2389.03C1953.65 2371.9 1948.06 2356.09 1938.42 2344.49C1929.8 2334.13 1918.94 2328.47 1907.73 2328.47Z" />
						</g>
					</g>
					<g id="&lt;Group&gt;">
						<g id="&lt;Group&gt;">
							<path id="&lt;Path&gt;" class="shp0" d="M2034.25 2600.3C2026.99 2600.3 2021.07 2594.46 2020.98 2587.18L2019.68 2473.81C2019.33 2443 2034.34 2414.28 2059.83 2396.97C2078.38 2384.38 2089.03 2363.49 2088.32 2341.09L2083.26 2181.35C2083.03 2174.02 2088.78 2167.9 2096.1 2167.67C2103.44 2167.34 2109.55 2173.18 2109.79 2180.51L2114.84 2340.25C2115.84 2371.79 2100.84 2401.2 2074.73 2418.93C2056.63 2431.22 2045.97 2451.62 2046.22 2473.51L2047.52 2586.88C2047.6 2594.2 2041.73 2600.21 2034.4 2600.29C2034.35 2600.3 2034.3 2600.3 2034.25 2600.3Z" />
						</g>
					</g>
					<g id="&lt;Group&gt;">
						<g id="&lt;Group&gt;">
							<path id="&lt;Path&gt;" class="shp1" d="M1673.55 2333.06C1725.3 2360.88 1731.88 2406.41 1693.29 2469.65C1518.96 2502.98 1401.26 2499.76 1340.17 2459.98C1305.42 2449.65 1288.42 2422.46 1289.16 2378.41C1289.79 2341.64 1307.2 2317.3 1341.39 2305.4C1437.65 2338.27 1548.37 2347.49 1673.55 2333.06Z" />
						</g>
					</g>
					<g id="&lt;Group&gt;" style="opacity: 0.251">
						<g id="&lt;Group&gt;">
							<path id="&lt;Path&gt;" class="shp0" d="M1693.29 2469.66C1518.96 2502.98 1401.26 2499.75 1340.17 2459.97C1305.42 2449.64 1288.42 2422.46 1289.17 2378.41C1289.36 2365.05 1292.56 2353.86 1297.25 2344.61C1304.91 2372.41 1320.76 2389.88 1344.81 2397.01C1405.91 2436.79 1523.61 2440.02 1697.94 2406.7C1702.82 2398.72 1707.22 2388.97 1711.16 2377.44C1719.24 2406.18 1713.28 2436.92 1693.29 2469.66Z" />
						</g>
					</g>
					<g id="&lt;Group&gt;">
						<g id="&lt;Group&gt;">
							<path id="&lt;Compound Path&gt;" fill-rule="evenodd" class="shp0" d="M1504.29 2507.27C1394.81 2507.27 1344.12 2482.59 1332.86 2476.21C1309.93 2468.31 1270.44 2438.94 1271.48 2378.1C1272.61 2311.37 1333 2289.59 1335.57 2288.69C1339.3 2287.4 1343.36 2287.38 1347.1 2288.66C1485.92 2336.07 1669.69 2315.7 1671.53 2315.49C1675.11 2315.08 1678.75 2315.77 1681.93 2317.48C1706.24 2330.55 1721.87 2349.38 1728.4 2373.44C1741.88 2423.16 1709.76 2476.61 1708.39 2478.87C1705.79 2483.12 1701.51 2486.09 1696.61 2487.03C1618.55 2501.95 1555.09 2507.27 1504.29 2507.27ZM1342.25 2324.34C1331.48 2329.78 1307.41 2345.64 1306.85 2378.71C1306 2429.01 1341.35 2441.79 1345.38 2443.08C1346.88 2443.56 1348.5 2444.3 1349.82 2445.16C1350.56 2445.62 1439.23 2498.64 1681.73 2453.82C1688.41 2440.47 1701.52 2409.3 1694.22 2382.59C1690.66 2369.58 1682.62 2359.29 1669.7 2351.26C1636.47 2354.53 1474.88 2367.41 1342.25 2324.34Z" />
						</g>
					</g>
					<g id="&lt;Group&gt;">
						<g id="&lt;Group&gt;" style="opacity: 0.251">
							<g id="&lt;Group&gt;">
								<path id="&lt;Path&gt;" class="shp0" d="M2266.69 1850.64C2264.66 1852.72 2262.53 1854.75 2260.44 1856.79C2241.55 1874.95 2221.89 1891.76 2201.5 1907.21C2193.61 1913.21 2185.61 1919.03 2177.53 1924.64C2152.63 1941.98 2126.72 1957.43 2100.23 1970.99C2089.72 1976.37 2079.06 1981.46 2068.36 1986.2C2046.42 1995.99 2024.09 2004.56 2001.42 2011.87C1989.12 2015.79 1976.72 2019.38 1964.27 2022.62C1823.43 2059.19 1673.24 2049.31 1537.87 1993.42C1491.08 1974.14 1446.14 1949.39 1403.9 1919.12C1376.78 1899.75 1350.77 1878.05 1326.17 1854.17C1359.73 1849.48 1393.78 1847.15 1425.6 1846.38C1439.84 1804.82 1455.1 1771.89 1470.69 1750.91C1499.51 1712.12 1588.38 1445.16 1767.39 1473.54C1899.18 1501.39 2092.09 1526.33 2129.77 1633.8C2132.05 1657.53 2143.19 1688.05 2151.13 1709.7C2156.36 1723.99 2162.51 1743.75 2169.15 1768.01C2195.54 1794.41 2229.2 1824.73 2266.69 1850.64Z" />
							</g>
						</g>
						<g id="&lt;Group&gt;">
							<g id="&lt;Group&gt;">
								<path id="&lt;Path&gt;" class="shp1" d="M2460.91 1365.92C2445.79 1477.3 2402.79 1585.37 2332.16 1679.02C2317.75 1698.11 2302.26 1716.58 2285.61 1734.34C2277.53 1743.01 2269.09 1751.51 2260.44 1759.91C2234.22 1785.09 2206.5 1807.69 2177.54 1827.76C2152.61 1845.12 2126.73 1860.55 2100.21 1874.11C2068.19 1890.5 2035.12 1904.1 2001.41 1914.99C1989.1 1918.92 1976.73 1922.51 1964.29 1925.76C1736.47 1984.87 1484.29 1922.54 1309.7 1740.69C1052.45 1472.85 1061.08 1047.2 1328.87 789.97C1380.48 740.47 1437.94 700.69 1498.95 670.89C1506.04 667.34 1513.27 663.99 1520.56 660.79C1539.99 652.1 1559.73 644.37 1579.72 637.64C1625.94 622.08 1673.51 611.74 1721.44 606.55C1769.35 601.31 1817.75 601.25 1865.59 606.32C1880.81 607.92 1895.97 610.03 1911.1 612.69C1933.76 616.68 1956.23 621.78 1978.51 628.14C2089.52 659.52 2193.93 719.94 2279.6 809.19C2427.59 963.25 2487.56 1169.51 2460.91 1365.92Z" />
							</g>
							<g id="&lt;Group&gt;">
								<path id="&lt;Compound Path&gt;" fill-rule="evenodd" class="shp0" d="M1795.34 1949.11C1613.91 1949.11 1437.09 1875.95 1308.42 1741.92C1050.92 1473.83 1059.54 1046.21 1327.63 788.69C1378.53 739.87 1435.9 699.7 1498.16 669.3C1504.96 665.89 1512.06 662.57 1519.84 659.16C1539.21 650.5 1559.17 642.69 1579.15 635.95C1625.04 620.51 1672.86 610.02 1721.25 604.78C1769.18 599.54 1817.81 599.46 1865.78 604.55C1881.2 606.18 1896.55 608.32 1911.4 610.93C1934.55 615.02 1957.3 620.23 1979 626.43C2093.58 658.81 2197.97 721.59 2280.89 807.96C2424.3 957.25 2490.55 1160.71 2462.68 1366.16C2447.22 1480.06 2402.58 1588.61 2333.58 1680.09C2318.97 1699.44 2303.27 1718.1 2286.91 1735.56C2279.42 1743.59 2271.17 1751.97 2261.68 1761.18C2235.76 1786.07 2207.8 1808.96 2178.55 1829.22C2154.09 1846.26 2128 1861.89 2101.02 1875.69C2069.46 1891.85 2036.13 1905.64 2001.96 1916.68C1989.64 1920.61 1977.11 1924.25 1964.74 1927.49C1908.7 1942.02 1851.79 1949.11 1795.34 1949.11ZM1794.59 604.35C1770.21 604.35 1745.84 605.68 1721.64 608.32C1673.5 613.53 1625.94 623.96 1580.28 639.33C1560.41 646.02 1540.56 653.79 1521.29 662.41C1513.55 665.81 1506.5 669.1 1499.74 672.49C1437.8 702.74 1380.73 742.69 1330.1 791.25C1063.43 1047.42 1054.85 1472.78 1310.98 1739.46C1478.8 1914.25 1728.96 1984.98 1963.84 1924.04C1976.15 1920.82 1988.61 1917.2 2000.87 1913.29C2034.85 1902.31 2068.01 1888.6 2099.4 1872.52C2126.24 1858.8 2152.19 1843.24 2176.52 1826.3C2205.61 1806.14 2233.43 1783.37 2259.2 1758.62C2268.65 1749.46 2276.86 1741.12 2284.3 1733.13C2300.59 1715.76 2316.21 1697.2 2330.74 1677.95C2399.37 1586.95 2443.77 1478.97 2459.15 1365.68C2486.88 1161.31 2420.97 958.93 2278.32 810.42C2195.84 724.51 2092 662.07 1978.03 629.86C1956.44 623.69 1933.81 618.5 1910.79 614.44C1896.02 611.85 1880.75 609.71 1865.41 608.09C1841.91 605.6 1818.24 604.35 1794.59 604.35Z" />
							</g>
						</g>
						<g id="&lt;Group&gt;" style="opacity: 0.251">
							<g id="&lt;Group&gt;">
								<path id="&lt;Path&gt;" class="shp0" d="M1130.72 1168.49C1149.6 1303.78 1209.73 1434.62 1311.63 1540.7C1486.25 1722.58 1738.42 1784.91 1966.23 1725.77C1978.67 1722.53 1991.04 1718.94 2003.37 1715.01C2037.05 1704.13 2070.14 1690.51 2102.17 1674.15C2128.68 1660.56 2154.55 1645.15 2179.5 1627.81C2208.44 1607.74 2236.14 1585.13 2262.39 1559.95C2271.05 1551.52 2279.49 1543.04 2287.55 1534.39C2304.2 1516.61 2319.7 1498.16 2334.09 1479.04C2401.47 1389.69 2443.72 1287.25 2460.57 1181.28C2469.13 1242.53 2469.23 1304.71 2460.91 1365.9C2445.81 1477.31 2402.79 1585.36 2332.16 1679.01C2317.73 1698.09 2302.27 1716.58 2285.62 1734.36C2277.52 1743.02 2269.07 1751.49 2260.46 1759.92C2234.21 1785.11 2206.51 1807.71 2177.52 1827.78C2152.62 1845.12 2126.71 1860.53 2100.2 1874.12C2068.17 1890.49 2035.12 1904.1 2001.4 1914.98C1989.11 1918.92 1976.74 1922.5 1964.3 1925.74C1736.49 1984.89 1484.28 1922.56 1309.7 1740.67C1157.85 1582.6 1098.65 1369.5 1130.72 1168.49Z" />
							</g>
						</g>
						<g id="&lt;Group&gt;">
							<g id="&lt;Group&gt;">
								<path id="&lt;Compound Path&gt;" fill-rule="evenodd" class="shp0" d="M1795.35 1961.04C1610.7 1961.04 1430.76 1886.58 1299.81 1750.19C1037.76 1477.35 1046.53 1042.16 1319.37 780.08C1371.16 730.4 1429.55 689.52 1492.93 658.57C1499.81 655.13 1507.08 651.73 1515.05 648.23C1534.69 639.45 1555 631.5 1575.33 624.65C1622.06 608.92 1670.72 598.25 1719.97 592.92C1768.73 587.59 1818.21 587.5 1867.04 592.68C1882.72 594.34 1898.35 596.52 1913.47 599.18C1937.03 603.34 1960.18 608.64 1982.28 614.96C2098.86 647.91 2205.11 711.79 2289.5 799.69C2435.44 951.63 2502.87 1158.68 2474.5 1367.76C2458.77 1483.68 2413.33 1594.17 2343.11 1687.28C2328.24 1706.97 2312.27 1725.96 2295.61 1743.72C2288.02 1751.87 2279.62 1760.39 2269.99 1769.75C2243.57 1795.12 2215.11 1818.41 2185.35 1839.03C2160.47 1856.36 2133.91 1872.27 2106.45 1886.32C2074.33 1902.76 2040.41 1916.8 2005.63 1928.04C1993.06 1932.05 1980.34 1935.74 1967.76 1939.03C1910.73 1953.83 1852.8 1961.04 1795.35 1961.04ZM1794.59 616.29C1770.64 616.29 1746.7 617.59 1722.93 620.19C1675.64 625.3 1628.93 635.55 1584.09 650.64C1564.58 657.21 1545.09 664.84 1526.16 673.31C1518.53 676.65 1511.66 679.87 1505.08 683.16C1444.15 712.92 1388.09 752.16 1338.36 799.87C1076.44 1051.47 1068.01 1469.26 1319.59 1731.19C1484.43 1902.88 1730.14 1972.35 1960.84 1912.49C1972.93 1909.33 1985.19 1905.77 1997.24 1901.92C2030.58 1891.15 2063.14 1877.68 2093.96 1861.9C2120.33 1848.42 2145.81 1833.14 2169.7 1816.51C2198.3 1796.69 2225.62 1774.33 2250.94 1750.02C2260.19 1741.03 2268.27 1732.83 2275.58 1724.99C2291.59 1707.91 2306.94 1689.67 2321.22 1670.76C2388.61 1581.4 2432.22 1475.35 2447.32 1364.08C2474.56 1163.34 2409.83 964.56 2269.71 818.69C2188.7 734.3 2086.71 672.98 1974.78 641.34C1953.55 635.27 1931.34 630.18 1908.72 626.19C1894.22 623.64 1879.22 621.55 1864.16 619.96C1841.07 617.51 1817.83 616.29 1794.59 616.29ZM2460.91 1365.92L2460.96 1365.92L2460.91 1365.92Z" />
							</g>
						</g>
						<g id="&lt;Group&gt;">
							<g id="&lt;Group&gt;">
								<path id="&lt;Compound Path&gt;" fill-rule="evenodd" class="shp0" d="M1795.35 1965.02C1609.63 1965.02 1428.65 1890.13 1296.94 1752.94C1033.37 1478.53 1042.2 1040.82 1316.61 777.21C1368.71 727.24 1427.44 686.13 1491.18 655C1498.08 651.54 1505.42 648.11 1513.45 644.59C1533.18 635.76 1553.61 627.77 1574.07 620.88C1621.06 605.06 1670 594.33 1719.54 588.96C1768.58 583.6 1818.35 583.52 1867.46 588.73C1883.23 590.39 1898.95 592.59 1914.16 595.26C1937.86 599.44 1961.14 604.78 1983.37 611.13C2100.62 644.27 2207.49 708.53 2292.37 796.94C2439.16 949.75 2506.98 1158.01 2478.44 1368.3L2478.44 1368.3C2462.62 1484.89 2416.92 1596.02 2346.28 1689.67C2331.34 1709.48 2315.26 1728.58 2298.51 1746.44C2290.88 1754.63 2282.44 1763.2 2272.76 1772.6C2246.17 1798.13 2217.55 1821.56 2187.61 1842.3C2162.59 1859.73 2135.88 1875.73 2108.26 1889.86C2075.95 1906.4 2041.83 1920.52 2006.85 1931.82C1994.2 1935.86 1981.41 1939.57 1968.76 1942.88C1911.4 1957.76 1853.14 1965.02 1795.35 1965.02ZM1794.59 620.27C1770.78 620.27 1746.99 621.56 1723.36 624.14C1676.35 629.23 1629.92 639.41 1585.36 654.41C1565.97 660.94 1546.6 668.52 1527.78 676.94C1520.19 680.27 1513.38 683.45 1506.86 686.72C1446.26 716.31 1390.55 755.32 1341.11 802.74C1080.77 1052.82 1072.4 1468.09 1322.46 1728.43C1486.3 1899.09 1730.53 1968.13 1959.84 1908.64C1971.86 1905.5 1984.04 1901.96 1996.03 1898.13C2029.15 1887.43 2061.51 1874.04 2092.15 1858.36C2118.35 1844.96 2143.68 1829.78 2167.43 1813.24C2195.86 1793.54 2223.02 1771.31 2248.18 1747.15C2257.37 1738.23 2265.4 1730.07 2272.67 1722.28C2288.6 1705.29 2303.85 1687.16 2318.04 1668.36C2385.03 1579.55 2428.37 1474.14 2443.38 1363.54L2443.38 1363.54C2470.46 1164.02 2406.11 966.43 2266.85 821.45C2186.32 737.57 2084.95 676.61 1973.7 645.17C1952.59 639.14 1930.51 634.07 1908.03 630.11C1893.62 627.58 1878.72 625.49 1863.74 623.91C1840.79 621.48 1817.68 620.27 1794.59 620.27ZM2460.91 1365.92L2460.96 1365.92L2460.91 1365.92Z" />
							</g>
						</g>
						<g id="&lt;Group&gt;">
							<g id="&lt;Group&gt;">
								<path id="&lt;Path&gt;" class="shp3" d="M2416.04 1532.28C2144.93 1929.08 1574.29 1935.04 1379.79 1500.61C1247.46 1205.05 1434.68 847.3 1726.69 738.39C1939.21 659.12 2181.38 674.7 2394.58 970.91C2444 1068.05 2467.73 1155.54 2465.77 1233.39C2463.81 1311.24 2455.31 1387.86 2440.27 1463.25L2416.04 1532.28Z" />
							</g>
						</g>
						<g id="&lt;Group&gt;">
							<g id="&lt;Group&gt;">
								<path id="&lt;Path&gt;" class="shp4" d="M1342.27 1218.41C1547.09 1653.98 2042.88 1743.96 2420.95 1518.29L2416.05 1532.29C2144.94 1929.06 1574.29 1935.03 1379.81 1500.61C1338.99 1409.39 1328.55 1312.28 1342.27 1218.41Z" />
							</g>
						</g>
						<g id="&lt;Group&gt;">
							<g id="&lt;Group&gt;">
								<path id="&lt;Compound Path&gt;" fill-rule="evenodd" class="shp0" d="M1875.48 1915.27C1799.62 1915.27 1724.85 1902.57 1654.83 1876.94C1495.66 1818.68 1372.64 1701.06 1299.07 1536.78C1231.38 1385.61 1232.14 1211.5 1301.19 1046.51C1376.33 866.99 1525.02 721.08 1698.94 656.21C1796.58 619.79 1891.05 604.42 1979.72 610.49L1981.56 610.62L1983.33 611.12C2100.62 644.27 2207.49 708.53 2292.37 796.94C2439.16 949.75 2506.98 1158.01 2478.44 1368.3L2478.44 1368.3C2462.62 1484.89 2416.92 1596.02 2346.28 1689.67C2331.34 1709.48 2315.26 1728.58 2298.51 1746.44C2290.88 1754.63 2282.44 1763.2 2272.76 1772.6C2246.17 1798.13 2217.55 1821.56 2187.61 1842.3L2185.2 1843.71C2086.35 1891.21 1979.89 1915.27 1875.48 1915.27ZM1941.66 644.58C1868.43 644.58 1791.12 659.59 1711.31 689.36C1546.38 750.88 1405.27 889.5 1333.83 1060.17C1268.59 1216.04 1267.71 1380.17 1331.36 1522.32C1400.94 1677.68 1517 1788.82 1666.99 1843.72C1824.05 1901.21 2006.8 1889.78 2168.61 1812.42C2196.59 1792.94 2223.36 1770.99 2248.18 1747.15C2257.37 1738.23 2265.4 1730.07 2272.67 1722.28C2288.6 1705.29 2303.85 1687.16 2318.04 1668.36C2385.03 1579.55 2428.37 1474.14 2443.38 1363.54C2470.46 1164.02 2406.11 966.43 2266.85 821.45C2186.75 738.01 2086.03 677.26 1975.47 645.67C1964.31 644.94 1953.03 644.58 1941.66 644.58ZM2460.91 1365.92L2460.96 1365.92L2460.91 1365.92Z" />
							</g>
						</g>
						<g id="&lt;Group&gt;">
							<g id="&lt;Group&gt;">
								<path id="&lt;Compound Path&gt;" fill-rule="evenodd" class="shp0" d="M1879.24 1845.96C1861.37 1845.96 1843.46 1845.17 1825.54 1843.57C1619.26 1825.11 1450.91 1702.74 1363.64 1507.84C1303.21 1372.84 1303.87 1217.39 1365.52 1070.11C1432.58 909.91 1565.28 779.71 1720.51 721.81C1990.74 621.01 2222.36 701.35 2408.93 960.58L2410.34 962.89C2413.45 969 2486.47 1113.96 2483.45 1233.84C2480.52 1350.79 2458.55 1462.03 2457.62 1466.71L2456.96 1469.11L2431.96 1540.34L2430.65 1542.26C2300.38 1732.92 2092.87 1845.96 1879.24 1845.96ZM1935.44 715.65C1870.74 715.65 1803.19 728.73 1732.87 754.96C1586.64 809.51 1461.51 932.42 1398.16 1083.77C1340.33 1221.94 1339.54 1367.4 1395.94 1493.38C1477.81 1676.25 1635.54 1791.05 1828.69 1808.32C2047.35 1827.89 2266.06 1719.06 2400.12 1524.21L2423.15 1458.6C2425.53 1446.27 2445.38 1340.46 2448.08 1232.95C2450.74 1127.45 2386.23 993.95 2379.39 980.09C2252.32 804.08 2103.56 715.65 1935.44 715.65ZM2416.04 1532.28L2416.09 1532.28L2416.04 1532.28Z" />
							</g>
						</g>
						<g id="&lt;Group&gt;" style="opacity: 0.502">
							<g id="&lt;Group&gt;">
								<path id="&lt;Path&gt;" class="shp1" d="M2020.87 786.2C2156.52 801.08 2256.3 863.56 2312.66 947.54C2331.37 975.38 2351.56 1015.25 2361.77 1035.33C2361.86 1035.38 2361.9 1035.42 2361.86 1035.46C2362.93 1037.78 2363.96 1040.1 2364.95 1042.45C2369.28 1052.67 2373.17 1062.75 2376.6 1072.65C2411.06 1173.13 2398.07 1258.88 2352.19 1346.62C2353.88 1303.75 2340.54 1242.25 2312.16 1162.11C2298.14 1122.58 2280.52 1078.37 2243 1022.19C2214.62 979.7 2175.54 945.34 2129.58 923.03C2129.35 922.92 2129.12 922.81 2128.89 922.7C1983.27 852.14 1812.98 846.3 1618.02 905.17C1603.68 896.13 1767.22 758.37 2020.87 786.2Z" />
							</g>
						</g>
						<g id="&lt;Group&gt;" style="opacity: 0.502">
							<g id="&lt;Group&gt;">
								<path id="&lt;Path&gt;" class="shp1" d="M1603.82 1256.07C1608.38 1313.73 1571.97 1363.65 1522.48 1367.57C1473 1371.48 1429.19 1327.91 1424.63 1270.25C1420.06 1212.58 1456.48 1162.67 1505.96 1158.75C1555.45 1154.84 1599.26 1198.41 1603.82 1256.07Z" />
							</g>
						</g>
						<g id="&lt;Group&gt;" style="opacity: 0.502">
							<g id="&lt;Group&gt;">
								<path id="&lt;Path&gt;" class="shp1" d="M1566.34 1466.79C1566.21 1490.68 1549.49 1509.95 1528.99 1509.84C1508.49 1509.72 1491.98 1490.27 1492.12 1466.38C1492.25 1442.5 1508.97 1423.23 1529.47 1423.34C1549.97 1423.45 1566.48 1442.91 1566.34 1466.79Z" />
							</g>
						</g>
						<g id="&lt;Group&gt;">
							<g id="&lt;Group&gt;">
								<path id="&lt;Path&gt;" class="shp1" d="M1076.06 1485.63C1076.3 1396.59 1118.64 1323.29 1188.86 1305.05C1279.73 1281.46 1383.86 1358.94 1425.79 1479.37C1427.08 1483.04 1428.31 1486.72 1429.45 1490.48C1468.7 1617.17 1424.6 1739.57 1331 1763.85C1237.35 1788.14 1129.65 1705.12 1090.41 1578.42C1080.6 1546.72 1075.99 1515.3 1076.06 1485.63Z" />
							</g>
							<g id="&lt;Group&gt;">
								<path id="&lt;Compound Path&gt;" fill-rule="evenodd" class="shp0" d="M1298.14 1785.69C1205.89 1785.69 1110.43 1702.84 1073.51 1583.66L1073.5 1583.65C1063.39 1550.93 1058.29 1517.94 1058.37 1485.59C1058.64 1385.32 1108.12 1307.74 1184.41 1287.92C1283.89 1262.12 1397.27 1343.63 1442.5 1473.55C1443.86 1477.44 1445.16 1481.34 1446.37 1485.31C1470.74 1563.97 1465.73 1643.21 1432.61 1702.66C1409.98 1743.28 1376.38 1770.36 1335.44 1780.98C1323.17 1784.16 1310.68 1785.69 1298.14 1785.69ZM1107.31 1573.19C1143.73 1690.79 1242.08 1768.64 1326.56 1746.73C1357.91 1738.6 1383.89 1717.4 1401.7 1685.44C1429.72 1635.15 1433.78 1564.22 1412.55 1495.71C1411.46 1492.11 1410.29 1488.65 1409.09 1485.19C1369.87 1372.54 1275.07 1300.94 1193.31 1322.17C1133.06 1337.82 1093.98 1402 1093.75 1485.68C1093.68 1514.45 1098.24 1543.9 1107.31 1573.2L1107.31 1573.19Z" />
							</g>
						</g>
						<g id="&lt;Group&gt;" style="opacity: 0.251">
							<g id="&lt;Group&gt;">
								<path id="&lt;Path&gt;" class="shp0" d="M1076.06 1485.63L1293.42 1480.8C1324.89 1512.04 1354.13 1524.98 1381.14 1519.64C1399.56 1515.99 1414.67 1497.94 1425.79 1479.37C1427.08 1483.04 1428.31 1486.72 1429.45 1490.48C1468.7 1617.17 1424.6 1739.57 1331 1763.85C1237.35 1788.14 1129.65 1705.12 1090.41 1578.42C1080.6 1546.72 1075.99 1515.3 1076.06 1485.63Z" />
							</g>
						</g>
						<g id="&lt;Group&gt;">
							<g id="&lt;Group&gt;">
								<path id="&lt;Path&gt;" class="shp1" d="M1103.99 1417.6C1161.62 1360.16 1256.72 1381.94 1316.41 1466.24C1376.1 1550.55 1377.77 1665.46 1320.14 1722.9C1262.51 1780.35 1167.41 1758.57 1107.72 1674.26C1048.03 1589.95 1046.36 1475.04 1103.99 1417.6Z" />
							</g>
							<g id="&lt;Group&gt;">
								<path id="&lt;Compound Path&gt;" fill-rule="evenodd" class="shp0" d="M1242.99 1756.85C1239.48 1756.85 1235.93 1756.7 1232.34 1756.39C1185.83 1752.4 1139.86 1722.86 1106.21 1675.33C1046.12 1590.46 1044.53 1474.25 1102.68 1416.29C1126.74 1392.31 1157.57 1381.19 1191.79 1384.12C1238.3 1388.1 1284.27 1417.65 1317.92 1465.18C1378.02 1550.05 1379.6 1666.25 1321.45 1724.22C1299.91 1745.68 1272.96 1756.85 1242.99 1756.85ZM1181.17 1387.36C1152.18 1387.36 1126.12 1398.15 1105.29 1418.91C1048.36 1475.65 1050.13 1589.72 1109.23 1673.19C1142.25 1719.83 1187.23 1748.81 1232.66 1752.7C1265.8 1755.55 1295.58 1744.78 1318.84 1721.59C1375.76 1664.85 1374 1550.78 1314.91 1467.31C1281.89 1420.68 1236.89 1391.69 1191.47 1387.8C1188 1387.51 1184.57 1387.36 1181.17 1387.36Z" />
							</g>
						</g>
						<g id="&lt;Group&gt;" style="opacity: 0.251">
							<g id="&lt;Group&gt;">
								<path id="&lt;Path&gt;" class="shp0" d="M1228 1740.56C1147.61 1722.02 1078.39 1632.44 1073.37 1540.51C1073.08 1535.03 1072.98 1529.64 1073.17 1524.43C1101.86 1572.76 1146.59 1610.26 1195.44 1621.5C1271.04 1638.92 1329.59 1587.36 1332.07 1504.66C1350.63 1535.88 1362.49 1571.58 1364.45 1607.69C1369.45 1699.57 1308.39 1759.1 1228 1740.56Z" />
							</g>
						</g>
						<g id="&lt;Group&gt;">
							<g id="&lt;Group&gt;">
								<path id="&lt;Compound Path&gt;" fill-rule="evenodd" class="shp0" d="M1245.26 1773.08C1172 1773.08 1096.41 1704.13 1064.72 1603.21C1043.77 1536.48 1047.27 1468.05 1074.09 1420.15C1091.19 1389.61 1116.38 1369.41 1146.93 1361.75C1227.94 1341.4 1319.36 1414.55 1355.05 1528.24C1376.01 1594.96 1372.5 1663.39 1345.69 1711.29C1328.58 1741.84 1303.4 1762.04 1272.85 1769.7C1263.76 1771.98 1254.52 1773.08 1245.26 1773.08ZM1174.51 1393.75C1168.1 1393.75 1161.76 1394.5 1155.53 1396.06C1134.67 1401.3 1117.19 1415.6 1104.96 1437.44C1082.81 1476.99 1080.39 1535 1098.47 1592.6C1125.08 1677.35 1187.92 1737.69 1245.26 1737.69C1251.68 1737.69 1258.02 1736.94 1264.24 1735.38C1285.1 1730.15 1302.59 1715.84 1314.81 1694.01C1336.96 1654.45 1339.39 1596.44 1321.3 1538.84C1294.69 1454.09 1231.86 1393.75 1174.51 1393.75Z" />
							</g>
						</g>
					</g>
					<g id="&lt;Group&gt;">
						<g id="&lt;Group&gt;">
							<path id="&lt;Path&gt;" class="shp5" d="M3047.19 2228.9C3008.73 2242.7 2962.09 2340.25 2942.04 2412.85C2855.44 2726.55 2584.02 2818.86 2408.21 2683.83C2147.93 2483.95 2376.39 1842.84 2337.11 1706.02C2307.6 1603.14 2217.21 1578.85 2065.94 1633.12L2062.79 1605.91L2058.57 1569.73C2321.82 1448.9 2469.58 1482.98 2501.83 1671.97C2527.5 1822.3 2409.67 2400.06 2517.04 2454.89C2558.02 2475.81 2610.95 2410.72 2627.18 2339.18C2632.02 2317.87 2634.64 2294.53 2635.85 2271.57C2638.14 2227.4 2636.54 2184.39 2631.05 2142.54L3047.19 2228.9Z" />
						</g>
					</g>
					<g id="&lt;Group&gt;" style="opacity: 0.702">
						<g id="&lt;Group&gt;">
							<path id="&lt;Path&gt;" class="shp1" d="M2644.52 2388.87C2626.74 2460.02 2579.67 2506.66 2504.93 2488.99C2369.95 2457.07 2507.1 1861.22 2482.46 1710.71C2441.18 1458.51 2151.64 1553.19 2061.96 1598.98L2058.57 1569.73C2321.82 1448.9 2469.58 1482.98 2501.83 1671.97C2527.5 1822.3 2409.67 2400.06 2517.04 2454.89C2558.02 2475.81 2610.95 2410.72 2627.18 2339.18C2630.13 2326.2 2632.26 2312.4 2633.77 2298.45C2651.49 2309.2 2655.32 2345.53 2644.52 2388.87Z" />
						</g>
					</g>
					<g id="&lt;Group&gt;">
						<g id="&lt;Group&gt;">
							<path id="&lt;Path&gt;" class="shp6" d="M3047.19 2228.9C3008.73 2242.7 2962.09 2340.25 2942.04 2412.85C2855.44 2726.55 2584.02 2818.86 2408.21 2683.83C2147.93 2483.95 2376.39 1842.84 2337.11 1706.02C2307.6 1603.14 2217.21 1578.85 2065.94 1633.12L2062.79 1605.91C2137.96 1580.33 2330.33 1530.25 2390.39 1662.57C2465.61 1828.41 2243.39 2322.28 2390.39 2524.05C2537.38 2725.82 2797.22 2592.5 2788.65 2468.69C2783.89 2399.77 2678.42 2362.59 2635.85 2271.57C2638.14 2227.4 2636.54 2184.39 2631.05 2142.54L3047.19 2228.9Z" />
						</g>
					</g>
					<g id="&lt;Group&gt;">
						<g id="&lt;Group&gt;">
							<path id="&lt;Compound Path&gt;" fill-rule="evenodd" class="shp0" d="M2583.56 2761.85C2517.08 2761.86 2452.41 2740.09 2397.43 2697.87C2210.16 2554.05 2262.74 2205.12 2301.13 1950.34C2317.34 1842.8 2331.33 1749.93 2320.13 1710.9C2311.32 1680.21 2294.31 1658.76 2268.13 1645.33C2193.54 1607.07 2073.12 1649.33 2071.91 1649.76C2066.83 1651.57 2061.19 1650.98 2056.61 1648.13C2052.03 1645.28 2048.99 1640.5 2048.37 1635.14L2041.01 1571.75C2040.13 1564.14 2044.24 1556.83 2051.2 1553.63C2060.63 1549.31 2283.59 1448.53 2421.1 1521.13C2474.28 1549.2 2507.31 1598.95 2519.27 1669.01C2529.17 1727.05 2519.17 1839.12 2507.59 1968.89C2498.01 2076.21 2488.1 2187.19 2488.79 2277.45C2489.74 2402.49 2511.95 2432.43 2525.1 2439.14C2527.24 2440.24 2533.76 2443.55 2545.21 2438.19C2571.6 2425.83 2599.43 2381.59 2609.93 2335.28C2627.81 2256.47 2613.64 2145.97 2613.49 2144.87C2612.74 2139.18 2614.8 2133.5 2618.99 2129.6C2623.19 2125.7 2629.01 2124.06 2634.62 2125.24L3050.77 2211.56C3058.53 2213.17 3064.27 2219.74 3064.83 2227.64C3065.39 2235.54 3060.63 2242.84 3053.17 2245.53C3026.12 2255.27 2981.28 2337.28 2959.11 2417.58C2913.56 2582.51 2813.34 2701.92 2684.14 2745.2C2650.83 2756.36 2616.96 2761.85 2583.56 2761.85ZM2189.67 1593.94C2221.78 1593.94 2255.24 1598.98 2284.19 1613.8C2319.1 1631.69 2342.63 1661.07 2354.14 1701.14C2367.47 1747.58 2353.63 1839.38 2336.12 1955.61C2299.04 2201.69 2248.25 2538.7 2418.98 2669.81C2492.1 2725.97 2584.65 2741.22 2672.9 2711.65C2790.75 2672.17 2882.64 2561.55 2925 2408.16C2938.99 2357.5 2970.24 2280.13 3006.67 2238.55L2651.15 2164.8C2654.54 2203.63 2658.54 2280.94 2644.44 2343.1C2631.33 2400.87 2596.7 2453.15 2560.21 2470.23C2542.46 2478.55 2524.76 2478.69 2509.01 2470.65C2436.28 2433.52 2447.27 2246.63 2472.34 1965.74C2483.24 1843.73 2493.52 1728.47 2484.39 1674.96C2474.38 1616.32 2447.53 1575.09 2404.59 1552.42C2298.84 1496.6 2124.28 1561.58 2077.68 1580.78L2081.06 1609.9C2104.92 1603.24 2146.05 1593.94 2189.67 1593.94Z" />
						</g>
					</g>
					<g id="&lt;Group&gt;">
						<g id="&lt;Group&gt;">
							<path id="&lt;Path&gt;" class="shp1" d="M2656.58 1943.58C2634.69 2060.11 2578.24 2113.47 2487.26 2103.65C2488 2095 2489.56 2076.98 2491.95 2049.6C2457.4 2027.45 2438.98 1983.75 2436.69 1918.49C2436.64 1917.33 2436.64 1916.17 2436.59 1915.01C2434.14 1805.06 2467.88 1754.79 2537.82 1764.18C2473.86 1737.97 2446.99 1708.76 2457.23 1676.57C2482.65 1596.56 2648.97 1639.03 2661.76 1811.6C2665.68 1864.59 2663.31 1908.03 2656.58 1943.58Z" />
						</g>
					</g>
					<g id="&lt;Group&gt;" style="opacity: 0.251">
						<g id="&lt;Group&gt;">
							<path id="&lt;Path&gt;" class="shp0" d="M2656.58 1943.58C2634.69 2060.11 2578.24 2113.47 2487.26 2103.65C2488 2095 2489.56 2076.98 2491.95 2049.6C2457.4 2027.45 2438.98 1983.75 2436.69 1918.49C2457.32 1948.23 2493.55 1980.34 2554.96 1984.51C2596.38 1987.32 2630.18 1968.77 2656.58 1943.58Z" />
						</g>
					</g>
					<g id="&lt;Group&gt;">
						<g id="&lt;Group&gt;">
							<path id="&lt;Compound Path&gt;" fill-rule="evenodd" class="shp0" d="M2495.09 2121.65C2489.44 2121.65 2485.95 2121.31 2485.35 2121.24C2475.79 2120.21 2468.8 2111.72 2469.63 2102.13L2473.52 2057.41C2456.44 2041.95 2420.82 1999.72 2418.92 1915.38C2417.41 1848.59 2432.75 1800.33 2464.49 1771.93C2471.82 1765.37 2479.42 1760.46 2486.85 1756.78C2458.27 1737.5 2428.76 1707.72 2440.36 1671.23C2451.71 1635.53 2486.57 1615.71 2529.2 1620.71C2597.46 1628.73 2670.97 1696.43 2679.4 1810.3C2688.5 1933.21 2665.7 2022.02 2611.66 2074.28C2567.67 2116.81 2516.23 2121.65 2495.09 2121.65ZM2531.5 1781.55C2523.43 1781.55 2504.46 1783.37 2487.62 1798.72C2464.58 1819.71 2453.06 1859.77 2454.29 1914.58C2456.29 2003.32 2499.8 2033.54 2501.65 2034.78C2507 2038.37 2510.14 2044.7 2509.58 2051.12L2506.56 2085.78C2526.11 2083.96 2558.8 2076.44 2587.53 2048.39C2633.33 2003.68 2652.37 1924.46 2644.12 1812.91C2636.28 1707.02 2568.63 1660.97 2525.07 1655.85C2515.42 1654.72 2483.2 1653.24 2474.08 1681.94C2466.33 1706.33 2519.21 1737.4 2544.53 1747.83C2552.75 1751.22 2557.19 1760.19 2554.89 1768.77C2552.58 1777.36 2544.26 1782.9 2535.45 1781.73C2535.24 1781.7 2533.82 1781.55 2531.5 1781.55ZM2457.22 1676.58L2457.27 1676.58L2457.22 1676.58Z" />
						</g>
					</g>
					<g id="&lt;Group&gt;">
						<g id="&lt;Group&gt;">
							<path id="&lt;Path&gt;" class="shp1" d="M2501.54 2220.42C2503.58 2232.31 2505.66 2246.35 2507.79 2262.56C2507.79 2262.61 2507.79 2262.61 2507.79 2262.66C2514.43 2313.61 2521.59 2393.09 2502.27 2397.11C2474.27 2402.95 2413.12 2407.44 2318.8 2410.57C2024.46 2605.02 1790.64 2584.95 1617.35 2350.37C1608.87 2338.94 1600.64 2326.83 1592.6 2314L1748.8 2025.53C1830 2131.11 1932.79 2176 2057.17 2160.17C2186.78 2143.66 2212.64 2094.79 2372.71 2089.03C2424.82 2087.14 2543.15 2080.36 2550.99 2149.28C2554.22 2177.59 2537.74 2201.31 2501.54 2220.42Z" />
						</g>
					</g>
					<g id="&lt;Group&gt;" style="opacity: 0.251">
						<g id="&lt;Group&gt;">
							<path id="&lt;Path&gt;" class="shp0" d="M2502.27 2397.11C2474.27 2402.95 2413.12 2407.44 2318.8 2410.57C2024.46 2605.02 1790.64 2584.95 1617.35 2350.37C1692.56 2390.81 1816.75 2442.73 1947.61 2434.55C2152.78 2421.66 2236.86 2321.8 2332.56 2342.33C2428.26 2362.82 2493.21 2353.42 2507.79 2262.66C2514.43 2313.61 2521.59 2393.09 2502.27 2397.11Z" />
						</g>
					</g>
					<g id="&lt;Group&gt;">
						<g id="&lt;Group&gt;">
							<path id="&lt;Path&gt;" class="shp0" d="M1736.74 2014.74C1769.36 2039.4 1801.93 2063.11 1835.65 2084.01C1869.5 2104.71 1905.16 2121.88 1942.57 2132.86C1979.94 2143.93 2019.2 2147.51 2057.78 2142.18C2077.56 2139.5 2097.08 2135.73 2116.32 2130.81C2135.53 2125.7 2154.47 2119.32 2173.77 2112.39C2193.06 2105.49 2212.89 2098.27 2233.37 2092.27C2253.84 2086.19 2274.89 2081.78 2295.94 2078.34C2306.5 2076.88 2317.05 2075.21 2327.61 2074.39L2343.46 2072.9L2359.28 2072.03C2369.95 2071.38 2380.09 2070.99 2390.57 2070.67C2401.03 2070.34 2411.6 2070.14 2422.25 2070.26C2443.54 2070.54 2465.16 2071.79 2487.15 2076.27C2498.14 2078.54 2509.26 2081.66 2520.28 2086.56C2531.24 2091.45 2542.36 2098.31 2551.49 2108.55C2560.68 2118.69 2566.74 2132.42 2568.36 2145.66C2569.29 2152.47 2569.16 2159.84 2567.85 2166.68C2566.56 2173.58 2564.22 2180.07 2561.26 2185.96C2555.3 2197.76 2547.16 2207.16 2538.52 2215.23C2534.18 2219.27 2529.64 2222.94 2524.95 2226.36C2522.6 2228.06 2520.22 2229.71 2517.77 2231.29C2515.21 2232.93 2513.04 2234.29 2509.8 2236.05L2518.97 2217.42C2524.02 2248.16 2528.04 2278.51 2530.63 2309.65C2531.85 2325.22 2532.73 2340.87 2532.38 2357.15C2532.14 2365.34 2531.71 2373.59 2530.02 2382.75C2529.07 2387.4 2528.09 2392.12 2525.27 2398.07C2523.85 2400.97 2521.98 2404.35 2518.2 2407.95C2516.31 2409.71 2513.9 2411.46 2510.99 2412.77C2509.58 2413.43 2507.96 2413.91 2506.41 2414.32C2505.92 2414.44 2505.74 2414.48 2505.66 2414.48L2505.28 2414.55L2504.5 2414.69C2487.87 2417.78 2472.73 2419.12 2457.21 2420.57C2441.82 2421.88 2426.49 2422.94 2411.18 2423.9C2380.54 2425.74 2350.06 2427.18 2319.38 2428.26L2328.55 2425.34C2313.02 2435.29 2298.04 2443.65 2282.42 2451.97C2266.89 2460.15 2251.14 2467.88 2235.15 2475.1C2203.2 2489.55 2170.37 2502.15 2136.74 2512.48C2103.11 2522.8 2068.66 2530.82 2033.62 2535.87C1998.61 2540.96 1962.95 2542.96 1927.31 2540.93C1891.68 2539.07 1856.1 2532.83 1821.77 2522.23C1787.51 2511.45 1754.52 2496.24 1724.38 2476.67C1709.18 2467.1 1694.64 2456.52 1680.62 2445.32C1666.45 2434.28 1653.53 2421.77 1641.43 2408.62C1617.73 2381.93 1597.73 2351.78 1587.59 2317.12C1586.64 2313.87 1588.5 2310.47 1591.75 2309.52C1593.84 2308.91 1595.98 2309.46 1597.51 2310.78L1597.58 2310.85C1624.08 2334.34 1645.66 2359.28 1668.81 2382.9C1692.04 2406.17 1715.68 2429.35 1743.52 2446.91C1771.04 2464.78 1801.04 2478.6 1832.31 2488.45C1863.65 2498.12 1896.28 2503.89 1929.28 2505.61C1995.37 2509.37 2062.28 2498.21 2126.35 2478.66C2158.43 2468.81 2189.9 2456.73 2220.57 2442.86C2235.9 2435.94 2251.02 2428.52 2265.89 2420.69C2280.61 2412.88 2295.63 2404.41 2309.04 2395.81L2309.22 2395.7C2311.99 2393.92 2315.14 2393.01 2318.21 2392.89C2348.43 2391.83 2378.82 2390.4 2409.01 2388.59C2424.11 2387.64 2439.18 2386.59 2454.14 2385.32C2468.95 2383.97 2484.2 2382.49 2497.53 2380.01L2498.16 2379.9L2498.48 2379.84C2498.64 2379.81 2498.69 2379.8 2498.42 2379.85C2497.77 2379.94 2497.1 2380.25 2496.55 2380.47C2495.36 2380.99 2494.53 2381.63 2494.03 2382.1C2493.05 2383.1 2493.23 2383.18 2493.43 2382.65C2493.94 2381.72 2494.74 2378.96 2495.26 2376.16C2496.36 2370.32 2496.83 2363.31 2497.01 2356.29C2497.32 2342.1 2496.53 2327.28 2495.36 2312.48C2492.92 2282.89 2488.93 2252.78 2484.1 2223.4C2482.84 2215.72 2486.68 2208.38 2493.13 2204.84L2493.28 2204.76C2494.57 2204.06 2496.8 2202.73 2498.57 2201.57C2500.45 2200.36 2502.31 2199.07 2504.13 2197.75C2507.77 2195.09 2511.27 2192.26 2514.47 2189.27C2520.89 2183.32 2526.33 2176.73 2529.65 2170.07C2533 2163.33 2534.19 2157.02 2533.3 2150.42C2532.33 2143.2 2529.63 2137.25 2525.02 2132.02C2515.75 2121.44 2498.27 2114.6 2480 2110.92C2461.55 2107.14 2441.78 2105.88 2421.87 2105.64C2411.89 2105.53 2401.83 2105.71 2391.68 2106.03C2381.54 2106.35 2371.07 2106.75 2361.16 2107.36L2346.09 2108.19L2331.13 2109.6C2321.12 2110.37 2311.29 2111.94 2301.41 2113.3C2281.77 2116.52 2262.37 2120.56 2243.29 2126.23C2224.17 2131.83 2205.21 2138.72 2185.67 2145.72C2166.15 2152.72 2145.98 2159.54 2125.31 2165.03C2104.58 2170.34 2083.54 2174.4 2062.45 2177.26C2019.27 2183.49 1974.57 2180.14 1932.54 2169.01C1890.37 2157.91 1850.95 2138.54 1815.96 2113.89C1798.4 2101.64 1781.94 2087.92 1767.08 2072.66C1752.17 2057.42 1738.58 2041.13 1727.7 2022.3C1726.04 2019.44 1727.02 2015.79 1729.88 2014.13C1732.03 2012.89 1734.62 2013.13 1736.48 2014.53L1736.74 2014.74Z" />
						</g>
					</g>
					<g id="&lt;Group&gt;">
						<g id="&lt;Group&gt;">
							<path id="&lt;Path&gt;" class="shp0" d="M1965.98 2541.61C1959.65 2541.61 1953.53 2538.21 1950.34 2532.23C1849 2341.82 1980.79 2159.43 1986.45 2151.76C1992.25 2143.89 2003.32 2142.22 2011.19 2148.03C2019.04 2153.82 2020.72 2164.89 2014.93 2172.75C2013.68 2174.45 1890.86 2345.16 1981.58 2515.61C1986.17 2524.23 1982.9 2534.94 1974.28 2539.54C1971.63 2540.94 1968.78 2541.61 1965.98 2541.61Z" />
						</g>
					</g>
					<g id="&lt;Group&gt;">
						<g id="&lt;Group&gt;">
							<path id="&lt;Path&gt;" class="shp5" d="M3109.55 2216.28C3086.35 2298.69 2951.04 2332.7 2807.31 2292.24C2663.59 2251.78 2565.88 2152.18 2589.08 2069.77C2612.28 1987.36 2747.6 1953.35 2891.32 1993.81C3035.04 2034.27 3132.75 2133.87 3109.55 2216.28Z" />
						</g>
					</g>
					<g id="&lt;Group&gt;">
						<g id="&lt;Group&gt;">
							<path id="&lt;Path&gt;" class="shp6" d="M3112.87 2196.06C3112.53 2202.84 3111.41 2209.62 3109.57 2216.26C3086.37 2298.69 2951.05 2332.69 2807.3 2292.25C2663.6 2251.76 2565.86 2152.18 2589.06 2069.75C2590.9 2063.16 2593.47 2056.87 2596.76 2050.91C2592.94 2128.79 2686.17 2215.97 2818.3 2253.17C2950.57 2290.41 3075.67 2264.6 3112.87 2196.06Z" />
						</g>
					</g>
					<g id="&lt;Group&gt;" style="opacity: 0.702">
						<g id="&lt;Group&gt;">
							<path id="&lt;Path&gt;" class="shp1" d="M3109.57 2216.26C3109.04 2218.2 3108.41 2220.09 3107.78 2221.93C3109.96 2144.58 3017.16 2058.61 2886.2 2021.75C2745.69 1982.18 2613.28 2013.76 2585.72 2092.17C2585.91 2084.57 2587.03 2077.11 2589.06 2069.75C2612.26 1987.36 2747.58 1953.36 2891.33 1993.81C3035.03 2034.25 3132.72 2133.87 3109.57 2216.26Z" />
						</g>
					</g>
					<g id="&lt;Group&gt;">
						<g id="&lt;Group&gt;">
							<path id="&lt;Compound Path&gt;" fill-rule="evenodd" class="shp0" d="M2927.09 2327.24C2888.06 2327.24 2845.81 2321.45 2802.52 2309.27C2730.08 2288.88 2666.32 2253.31 2622.97 2209.13C2577.13 2162.39 2559.04 2111.2 2572.05 2064.98C2598.3 1971.76 2740.64 1933.02 2896.11 1976.78C2968.55 1997.17 3032.31 2032.74 3075.66 2076.92C3121.5 2123.66 3139.59 2174.85 3126.58 2221.07C3107.64 2288.34 3028.24 2327.24 2927.09 2327.24ZM2773.23 1994.69C2688.23 1994.69 2620.32 2024.09 2606.11 2074.56C2596.68 2108.06 2611.64 2147.05 2648.23 2184.35C2687.32 2224.2 2745.52 2256.47 2812.1 2275.21C2943.94 2312.32 3072.35 2283.14 3092.52 2211.48C3101.95 2177.99 3086.99 2139 3050.4 2101.7C3011.31 2061.85 2953.11 2029.58 2886.53 2010.84C2847.57 1999.87 2808.88 1994.69 2773.23 1994.69Z" />
						</g>
					</g>
					<g id="&lt;Group&gt;">
						<g id="&lt;Group&gt;">
							<path id="&lt;Path&gt;" class="shp5" d="M3019.29 2174.75C3006.07 2221.73 2920.3 2238.73 2827.74 2212.68C2775.34 2197.9 2731.94 2172.48 2706.61 2144.68C2687.24 2123.41 2678.42 2100.75 2684.14 2080.4C2692.18 2051.73 2727.24 2034.25 2774.37 2030.86C2804.49 2028.68 2839.56 2032.26 2875.69 2042.43C2968.24 2068.49 3032.52 2127.72 3019.29 2174.75Z" />
						</g>
					</g>
					<g id="&lt;Group&gt;">
						<g id="&lt;Group&gt;">
							<path id="&lt;Path&gt;" class="shp6" d="M3019.29 2174.75C3006.07 2221.73 2920.3 2238.73 2827.74 2212.68C2775.34 2197.9 2731.94 2172.48 2706.61 2144.68C2747.83 2159.11 2800.04 2168.31 2823.43 2134.94C2849.83 2097.31 2805.41 2054.4 2774.37 2030.86C2804.49 2028.68 2839.56 2032.26 2875.69 2042.43C2968.24 2068.49 3032.52 2127.72 3019.29 2174.75Z" />
						</g>
					</g>
					<g id="&lt;Group&gt;">
						<g id="&lt;Group&gt;">
							<path id="&lt;Compound Path&gt;" fill-rule="evenodd" class="shp0" d="M2911.49 2240.02C2884.32 2240.02 2854.44 2235.9 2823.65 2227.23C2776.64 2214 2734.87 2192.08 2706.03 2165.51C2674.5 2136.47 2661.56 2104.79 2669.58 2076.29C2677.6 2047.8 2705.17 2027.52 2747.22 2019.19C2785.68 2011.57 2832.76 2014.66 2879.76 2027.89C2981.89 2056.64 3049.57 2122.93 3033.84 2178.83C3022.85 2217.87 2974.47 2240.02 2911.49 2240.02ZM2791.68 2045.29C2778.03 2045.29 2765.05 2046.47 2753.09 2048.84C2723.22 2054.76 2703.39 2067.75 2698.68 2084.48C2693.97 2101.22 2704.11 2122.65 2726.51 2143.28C2751.92 2166.69 2789.33 2186.17 2831.84 2198.13C2922.02 2223.52 2995.35 2204.02 3004.74 2170.64C3014.14 2137.26 2961.76 2082.37 2871.58 2056.98C2844.06 2049.24 2816.73 2045.29 2791.68 2045.29ZM3019.29 2174.73L3019.34 2174.73L3019.29 2174.73Z" />
						</g>
					</g>
					<g id="&lt;Group&gt;">
						<g id="&lt;Group&gt;">
							<path id="&lt;Path&gt;" class="shp5" d="M2520.92 2052.68C2522.82 2078.47 2507.48 2100.62 2486.67 2102.15C2465.86 2103.68 2447.46 2084.02 2445.56 2058.23C2443.66 2032.44 2458.99 2010.3 2479.8 2008.77C2500.61 2007.24 2519.02 2026.9 2520.92 2052.68Z" />
						</g>
					</g>
					<g id="&lt;Group&gt;" style="opacity: 0.702">
						<g id="&lt;Group&gt;">
							<path id="&lt;Path&gt;" class="shp1" d="M2520.09 2067.67C2513.7 2049.5 2498.64 2037.15 2481.98 2038.41C2465.32 2039.62 2452.24 2054.01 2448.56 2072.9C2447.01 2068.34 2445.94 2063.4 2445.55 2058.22C2443.67 2032.46 2458.97 2010.32 2479.8 2008.77C2500.62 2007.22 2519.03 2026.89 2520.92 2052.7C2521.3 2057.88 2520.96 2062.92 2520.09 2067.67Z" />
						</g>
					</g>
					<g id="&lt;Group&gt;">
						<g id="&lt;Group&gt;">
							<path id="&lt;Compound Path&gt;" fill-rule="evenodd" class="shp0" d="M2484.47 2119.92C2470.38 2119.92 2456.57 2113.7 2446.11 2102.52C2435.59 2091.29 2429.13 2076.02 2427.92 2059.53C2426.7 2043.04 2430.86 2026.99 2439.62 2014.34C2449.05 2000.71 2463.23 1992.25 2478.5 1991.13C2493.79 1990.01 2509.04 1996.29 2520.37 2008.39C2530.89 2019.63 2537.35 2034.9 2538.56 2051.39C2539.78 2067.88 2535.62 2083.93 2526.86 2096.58C2517.42 2110.21 2503.25 2118.66 2487.97 2119.79C2486.8 2119.88 2485.64 2119.92 2484.47 2119.92ZM2482.07 2026.38C2481.75 2026.38 2481.43 2026.39 2481.1 2026.41C2474.86 2026.87 2470.66 2031.66 2468.71 2034.47C2464.6 2040.42 2462.59 2048.6 2463.2 2056.93C2463.82 2065.26 2467 2073.07 2471.94 2078.34C2474.28 2080.84 2479.13 2084.98 2485.38 2084.5C2491.62 2084.04 2495.82 2079.25 2497.77 2076.44C2501.88 2070.5 2503.89 2062.31 2503.27 2053.98C2502.66 2045.65 2499.48 2037.85 2494.54 2032.57C2492.32 2030.2 2487.84 2026.38 2482.07 2026.38Z" />
						</g>
					</g>
					<g id="&lt;Group&gt;">
						<g id="&lt;Group&gt;">
							<path id="&lt;Path&gt;" class="shp5" d="M2524.73 1561.53C2535.06 1585.24 2527.92 1611.21 2508.79 1619.54C2489.66 1627.87 2465.78 1615.41 2455.45 1591.71C2445.13 1568.01 2452.27 1542.03 2471.4 1533.7C2490.53 1525.37 2514.4 1537.83 2524.73 1561.53Z" />
						</g>
					</g>
					<g id="&lt;Group&gt;" style="opacity: 0.702">
						<g id="&lt;Group&gt;">
							<path id="&lt;Path&gt;" class="shp1" d="M2527.41 1597.77C2526.68 1595.3 2525.81 1592.78 2524.74 1590.31C2514.43 1566.63 2490.55 1554.13 2471.42 1562.46C2462.31 1566.43 2455.92 1574.47 2452.82 1584.3C2446.72 1562.8 2454.27 1541.15 2471.42 1533.69C2490.55 1525.36 2514.43 1537.81 2524.74 1561.54C2530.17 1573.94 2530.75 1586.97 2527.41 1597.77Z" />
						</g>
					</g>
					<g id="&lt;Group&gt;">
						<g id="&lt;Group&gt;">
							<path id="&lt;Compound Path&gt;" fill-rule="evenodd" class="shp0" d="M2496.27 1639.79C2487.66 1639.79 2478.87 1637.62 2470.64 1633.32C2456.99 1626.2 2445.84 1613.93 2439.23 1598.77C2432.63 1583.62 2431.24 1567.09 2435.32 1552.25C2439.71 1536.27 2450.29 1523.6 2464.33 1517.48C2478.38 1511.37 2494.86 1512.25 2509.55 1519.92C2523.19 1527.04 2534.35 1539.31 2540.95 1554.47C2547.55 1569.63 2548.94 1586.15 2544.86 1600.99C2540.47 1616.97 2529.9 1629.64 2515.85 1635.76C2509.68 1638.45 2503.03 1639.79 2496.27 1639.79ZM2483.93 1548.81C2482.15 1548.81 2480.3 1549.12 2478.46 1549.92C2472.72 1552.42 2470.34 1558.33 2469.44 1561.63C2467.52 1568.6 2468.34 1576.99 2471.67 1584.64C2475.01 1592.3 2480.6 1598.61 2487 1601.96C2490.03 1603.54 2495.98 1605.82 2501.72 1603.32C2507.46 1600.82 2509.84 1594.91 2510.75 1591.61C2512.66 1584.64 2511.85 1576.26 2508.51 1568.6C2505.17 1560.94 2499.59 1554.63 2493.18 1551.29C2491.12 1550.21 2487.71 1548.81 2483.93 1548.81Z" />
						</g>
					</g>
					<g id="&lt;Group&gt;">
						<g id="&lt;Group&gt;">
							<g id="&lt;Group&gt;">
								<path id="&lt;Path&gt;" class="shp1" d="M2613.03 1796.78C2596.22 1781.68 2571.15 1770.82 2537.8 1764.19" />
							</g>
						</g>
						<g id="&lt;Group&gt;">
							<g id="&lt;Group&gt;">
								<path id="&lt;Path&gt;" class="shp0" d="M2607.12 1803.36C2605.01 1802.04 2601.96 1800.28 2599.21 1798.89C2596.37 1797.43 2593.44 1796.08 2590.47 1794.83C2584.53 1792.31 2578.41 1790.2 2572.23 1788.37C2566 1786.65 2559.76 1785.1 2553.41 1784.03C2547.1 1782.86 2540.71 1782.14 2534.36 1781.54L2534.22 1781.53C2524.43 1780.61 2517.25 1771.93 2518.17 1762.14C2519.09 1752.36 2527.77 1745.17 2537.55 1746.09C2538.8 1746.21 2540.1 1746.48 2541.25 1746.84C2548.39 1749.1 2555.44 1751.51 2562.32 1754.38C2569.22 1757.16 2575.92 1760.44 2582.47 1763.88C2588.98 1767.46 2595.31 1771.31 2601.37 1775.59C2604.41 1777.72 2607.38 1779.96 2610.26 1782.34C2613.23 1784.79 2615.81 1787.04 2618.94 1790.2C2622.38 1793.66 2622.35 1799.25 2618.88 1802.69C2615.92 1805.62 2611.39 1806.03 2608 1803.91L2607.12 1803.36Z" />
							</g>
						</g>
					</g>
				</g>
				<g id="&lt;Group&gt;">
					<g id="&lt;Group&gt;">
						<g id="&lt;Group&gt;">
							<path id="&lt;Compound Path&gt;" fill-rule="evenodd" class="shp0" d="M2965.32 1815.92C2968.43 1816.57 2971.54 1817.76 2974.66 1817.79C2987.26 1817.91 2997.42 1812.68 3004.6 1802.39C3008.91 1796.22 3009.02 1788.87 3008.65 1781.6C3008 1768.87 3003.2 1757.22 2999.18 1745.37C2997.47 1740.32 2995.65 1735.31 2993.79 1730.03C2990.56 1730.78 2987.44 1731.66 2984.25 1732.24C2954.06 1737.74 2928.68 1728.35 2907.61 1706.73C2893.49 1692.24 2885.13 1674.68 2882.58 1654.57C2880.43 1637.62 2883.85 1621.42 2890.23 1605.79C2896.88 1589.49 2906.31 1574.82 2917.07 1560.98C2922.37 1554.16 2927.68 1547.35 2933.09 1540.64C2934.47 1538.93 2934.76 1537.55 2933.98 1535.39C2926.44 1514.7 2921.21 1493.55 2921.57 1471.32C2921.85 1454.51 2924.25 1438.17 2932.06 1422.99C2935.36 1416.56 2939.97 1411.27 2945.73 1406.95C2951.5 1402.62 2954.67 1402.64 2959.78 1407.64C2968.82 1416.48 2975.49 1427.01 2979.69 1438.83C2996.31 1485.62 2990.26 1529.13 2960.15 1568.99C2959.44 1569.93 2959.06 1571.68 2959.4 1572.79C2962.58 1583.31 2965.98 1593.76 2969.24 1604.26C2969.76 1605.93 2970.41 1606.58 2972.29 1606.23C2996.68 1601.69 3015.27 1611.17 3027.91 1631.45C3041.82 1653.77 3043.63 1677.41 3030.77 1701.14C3025.81 1710.31 3018.24 1717.09 3009.16 1722.11C3007.01 1723.3 3006.61 1724.48 3007.34 1726.73C3011.56 1739.83 3015.8 1752.93 3019.75 1766.12C3022.06 1773.81 3023.58 1781.74 3022.87 1789.83C3021.35 1807.27 3012.29 1819.8 2996.41 1826.65C2977.07 1835 2958.31 1833.42 2941.76 1819.69C2928.64 1808.81 2926.67 1788.56 2936.56 1774.66C2948.38 1758.07 2971.48 1759.97 2980.33 1778.39C2988.38 1795.12 2979.82 1810.32 2966.49 1814.47C2966.13 1814.58 2965.8 1814.78 2965.46 1814.94C2965.41 1815.27 2965.36 1815.59 2965.32 1815.92ZM2948.27 1582.33C2947.17 1583.37 2946.43 1583.92 2945.89 1584.62C2938.02 1594.75 2929.82 1604.65 2922.43 1615.12C2914.91 1625.78 2909.78 1637.65 2907.6 1650.67C2904.95 1666.47 2906.89 1681.34 2915.86 1694.98C2931.1 1718.14 2961.25 1727 2986.4 1717.96C2989.12 1716.98 2989.84 1716.15 2988.93 1713.24C2982.34 1692.27 2975.94 1671.24 2969.47 1650.23C2968.76 1647.92 2968.01 1645.62 2967.17 1642.96C2961.13 1646.39 2956.9 1650.93 2953.7 1656.39C2948.32 1665.59 2948.19 1674.8 2953.79 1684.11C2957.52 1690.32 2962.53 1694.6 2969.54 1696.58C2972.46 1697.41 2974.15 1699.97 2973.69 1702.28C2973.22 1704.62 2970.31 1706.23 2967.31 1705.81C2946.56 1702.91 2928.82 1682.84 2929.12 1662.14C2929.42 1641.23 2937.78 1624.41 2955.32 1612.49C2956.05 1612 2956.89 1610.64 2956.7 1609.98C2954.05 1600.92 2951.23 1591.92 2948.27 1582.33ZM2944.56 1527.98C2946.55 1525.72 2947.94 1524.37 2949.07 1522.83C2959.27 1508.93 2966.81 1493.78 2970.26 1476.79C2971.96 1468.43 2972.18 1460.1 2969.35 1451.87C2967.12 1445.39 2962.09 1443.38 2956.02 1446.69C2951.77 1449.01 2948.93 1452.72 2947.15 1457.02C2939.78 1474.85 2937.08 1493.34 2940.33 1512.46C2941.18 1517.43 2942.97 1522.24 2944.56 1527.98ZM3002.04 1710.61C3014.7 1705.26 3021.66 1682.71 3016.05 1666.33C3010.07 1648.85 2994.22 1638.28 2980.08 1640.45C2987.41 1663.86 2994.72 1687.22 3002.04 1710.61Z" />
						</g>
					</g>
					<g id="&lt;Group&gt;">
						<g id="&lt;Group&gt;">
							<path id="&lt;Path&gt;" class="shp0" d="M3253.65 1126.73C3259.23 1124.06 3265.86 1127.16 3267.38 1133.16C3279.82 1182.25 3292.49 1232.34 3304.98 1281.23C3306.51 1287.23 3306.22 1292.99 3304.36 1298.74C3301.22 1308.47 3295.31 1316.37 3287.77 1323.09C3278.97 1330.93 3268.88 1336.32 3257.23 1338.5C3250.04 1339.84 3242.91 1339.71 3236.02 1336.97C3226.08 1333.01 3220.46 1324.02 3221.06 1313.13C3221.49 1305.27 3224.34 1298.26 3228.69 1291.83C3236.62 1280.13 3247.37 1271.99 3260.59 1267.1C3263.59 1265.99 3266.69 1265.16 3269.86 1264.71C3270.86 1264.57 3270.95 1264.24 3270.72 1263.34C3265.3 1242.09 3259.9 1220.84 3254.5 1199.59C3252.28 1190.88 3250.06 1182.18 3247.87 1173.47C3247.67 1172.64 3247.56 1172.36 3246.58 1172.82C3227.24 1181.96 3207.87 1191.05 3188.5 1200.14C3176.3 1205.87 3164.09 1211.6 3151.86 1217.28C3150.76 1217.79 3150.61 1218.32 3150.9 1219.45C3161.41 1260.52 3171.84 1301.61 3182.4 1342.67C3183.92 1348.58 3183.77 1354.34 3182.21 1360.12C3179.6 1369.74 3174.14 1377.58 3166.8 1384.17C3160.36 1389.95 3153.04 1394.29 3144.86 1397.14C3144.68 1397.2 3144.45 1397.21 3144.47 1397.49L3144 1397.61C3143.84 1397.53 3143.72 1397.53 3143.61 1397.63C3143.1 1397.82 3142.68 1397.98 3142.17 1398.16C3141.01 1398.06 3139.99 1398.57 3138.9 1398.78C3138.5 1398.93 3138.05 1398.93 3137.66 1399.12C3137.14 1399.28 3136.33 1399.54 3135.81 1399.7C3133.68 1399.93 3131.58 1400.38 3129.42 1400.44C3123.25 1400.6 3117.29 1399.61 3111.91 1396.5C3106.64 1393.46 3102.76 1389.13 3101.33 1382.97C3101.19 1382.24 3100.87 1381.54 3100.86 1380.77C3099.41 1372.84 3101.13 1365.4 3104.73 1358.39C3111.45 1345.32 3121.87 1336.12 3135.11 1329.99C3139.01 1328.19 3143.08 1326.84 3147.32 1326.07C3147.95 1325.96 3148.16 1325.73 3148.03 1325.22C3147.98 1325.04 3147.87 1324.69 3147.82 1324.5C3138.33 1287.17 3128.8 1248.66 3119.27 1211.01C3116.64 1200.62 3121.71 1189.81 3131.39 1185.19C3149.95 1176.32 3168.83 1167.28 3187.11 1158.54C3209.25 1147.94 3231.4 1137.37 3253.54 1126.78C3253.58 1126.76 3253.61 1126.74 3253.65 1126.73Z" />
						</g>
					</g>
					<g id="&lt;Group&gt;">
						<g id="&lt;Group&gt;">
							<path id="&lt;Path&gt;" class="shp0" d="M3063.01 880.11C3062.58 887.23 3061.44 892.99 3059.61 897.39C3058.88 899.88 3057.13 901.54 3054.71 902.37C3052.48 903.14 3050.57 902.36 3049.08 900.62C3046.79 897.96 3045.92 894.77 3046.08 891.34C3040.91 857.96 3025.41 832.81 2999.57 815.9C3000.37 816.2 3001.16 816.51 3001.94 816.83C3001.18 816.47 3000.39 816.16 2999.57 815.9C2994.73 814.33 2989.87 815.96 2988.06 820.05C2987.31 821.72 2986.97 823.68 2986.9 825.53C2986.82 827.89 2987.21 830.27 2987.38 832.65C2987.92 840.11 2988.44 847.57 2988.99 855.03C2990.17 871.01 2991.4 886.99 2992.55 902.98C2994.56 930.9 2996.44 958.83 2998.54 986.74C2999.41 998.34 2995.72 1008.32 2988.63 1017.25C2982.68 1024.74 2975.26 1030.54 2967.38 1035.85C2961.58 1039.76 2955.7 1043.5 2949.21 1046.21C2938.55 1050.68 2927.55 1052.56 2915.97 1051.27C2910.55 1050.67 2905.19 1050.06 2900.12 1047.97C2891.29 1044.33 2884.19 1038.76 2880.33 1029.76C2877.53 1023.21 2877.26 1016.32 2878.35 1009.4C2880.32 996.84 2886.36 986.33 2895.88 978.1C2908.78 966.96 2923.6 959.65 2940.82 957.95C2949.32 957.11 2957.72 957.76 2965.98 960.02C2966.66 960.21 2967.34 960.36 2968.03 960.45C2971.24 960.83 2973.43 959.65 2974.81 956.7C2976.37 953.36 2977 949.74 2976.78 946.13C2975.17 920.33 2973.46 894.53 2971.74 868.74C2971.36 862.95 2970.82 857.18 2970.35 851.41C2970.45 851.4 2970.55 851.39 2970.65 851.38C2968.34 820.11 2966.03 788.83 2963.71 757.56C2963.42 753.61 2965.26 750.73 2968.91 749.46C2972.95 748.05 2976.78 749.11 2978.9 752.28C2983.27 758.84 2987.59 765.44 2991.95 772.01C2994.58 775.97 2997.77 779.42 3001.23 782.68C3004.36 785.64 3007.38 788.73 3010.44 791.77C3034.04 808.09 3047.48 825.01 3054.87 840.39C3055.74 842.08 3056.51 843.83 3057.18 845.62C3058.31 848.41 3059.24 851.13 3060.01 853.78C3060.53 855.2 3061.04 856.63 3061.41 858.1C3063.28 865.41 3063.69 872.76 3063.01 880.11Z" />
						</g>
					</g>
					<g id="&lt;Group&gt;">
						<g id="&lt;Group&gt;">
							<path id="&lt;Path&gt;" class="shp0" d="M3251.74 1633.51C3251.74 1644.29 3243 1653.02 3232.23 1653.02C3221.45 1653.02 3212.72 1644.29 3212.72 1633.51C3212.72 1622.74 3221.45 1614 3232.23 1614C3243 1614 3251.74 1622.74 3251.74 1633.51Z" />
						</g>
					</g>
					<g id="&lt;Group&gt;">
						<g id="&lt;Group&gt;">
							<path id="&lt;Path&gt;" class="shp0" d="M2869.72 1227.53C2869.72 1234.12 2864.38 1239.46 2857.79 1239.46C2851.2 1239.46 2845.86 1234.12 2845.86 1227.53C2845.86 1220.94 2851.2 1215.6 2857.79 1215.6C2864.38 1215.6 2869.72 1220.94 2869.72 1227.53Z" />
						</g>
					</g>
					<g id="&lt;Group&gt;">
						<g id="&lt;Group&gt;">
							<path id="&lt;Path&gt;" class="shp0" d="M2815.91 1872.68C2815.91 1879.27 2810.56 1884.61 2803.98 1884.61C2797.39 1884.61 2792.05 1879.27 2792.05 1872.68C2792.05 1866.09 2797.39 1860.75 2803.98 1860.75C2810.56 1860.75 2815.91 1866.09 2815.91 1872.68Z" />
						</g>
					</g>
				</g>
			</g>
		</g>
	</g>
</svg>
